<svg width="30" height="28" viewBox="0 0 30 28" fill="none" xmlns="http://www.w3.org/2000/svg">
<g clip-path="url(#clip0_308_427)">
<path d="M12.6206 19.8333L17.6776 15.2055C18.0255 14.8861 18.2208 14.4537 18.2208 14.0029C18.2208 13.5522 18.0255 13.1197 17.6776 12.8003L12.6148 8.16666L11.4893 9.1977L16.552 13.8308C16.6019 13.8764 16.6299 13.9382 16.6299 14.0027C16.6299 14.0671 16.6019 14.1289 16.552 14.1745L11.4946 18.8023L12.6206 19.8333Z" fill="#0094FF"/>
</g>
<path d="M29.5 14C29.5 21.4239 23.0412 27.5 15 27.5C6.95882 27.5 0.5 21.4239 0.5 14C0.5 6.57609 6.95882 0.5 15 0.5C23.0412 0.5 29.5 6.57609 29.5 14Z" stroke="#0094FF"/>
<defs>
<clipPath id="clip0_308_427">
<rect width="12.766" height="11.6667" fill="white" transform="translate(8.29785 8.16666)"/>
</clipPath>
</defs>
</svg>
