<svg width="231" height="207" viewBox="0 0 231 207" fill="none" xmlns="http://www.w3.org/2000/svg">
<g clip-path="url(#clip0_308_244)">
<path opacity="0.1" d="M15.1188 81.1332H35.1956V114.318H16.5868C16.5393 114.661 16.4918 115.002 16.4384 115.345H35.1956V142.103C35.164 142.103 35.1323 142.074 35.1027 142.06C34.5751 141.806 34.0475 141.536 33.5199 141.251C33.4072 141.189 33.2964 141.124 33.1816 141.064C32.6541 140.762 32.1265 140.442 31.5989 140.105C31.4149 139.987 31.2309 139.865 31.0509 139.74C28.122 137.758 25.46 135.246 23.1571 132.289C23.0878 132.21 23.0245 132.123 22.9592 132.049C22.6387 131.627 22.3242 131.2 22.0195 130.763C21.9047 130.602 21.794 130.439 21.6812 130.283C21.3211 129.751 20.9729 129.199 20.6366 128.645C20.5852 128.561 20.5377 128.479 20.4882 128.405C19.1104 126.093 17.9679 123.588 17.0854 120.944C17.0577 120.865 17.0319 120.779 17.0062 120.704C16.7332 119.865 16.4859 119.013 16.2722 118.145C16.1812 117.782 16.0922 117.425 16.017 117.048C15.9893 116.94 15.9676 116.83 15.9438 116.722C14.832 111.408 14.7034 105.886 14.7034 100.39C14.7034 99.75 14.7034 99.1103 14.7034 98.4706C14.7192 96.2267 14.741 93.9853 14.7687 91.7462C14.7792 91.1705 14.7891 90.5923 14.7983 90.0118C14.826 88.542 14.8656 87.069 14.917 85.5929C14.9289 85.1851 14.9447 84.7748 14.9625 84.3694C14.9705 84.1343 14.9803 83.8992 14.9922 83.6641C15.0278 82.8149 15.07 81.9712 15.1188 81.1332Z" fill="#04AD48"/>
<path opacity="0.1" d="M35.1956 44.1842H24.1819C25.973 40.7885 27.9292 37.5249 30.0399 34.4108C31.678 31.9735 33.4032 29.5985 35.1956 27.3099V44.1842Z" fill="#04AD48"/>
<path opacity="0.1" d="M35.1956 45.2062V80.1064H15.1821C15.1821 80.0057 15.194 79.9025 15.2019 79.8018C15.2197 79.5259 15.2375 79.2524 15.2573 78.9765C15.2771 78.6551 15.3028 78.3336 15.3285 78.0169C15.3542 77.7003 15.38 77.3164 15.4116 76.9686C15.4433 76.6207 15.469 76.2681 15.5007 75.9202C15.5323 75.5724 15.564 75.2245 15.5996 74.8791C15.6352 74.5336 15.6668 74.1834 15.7064 73.8379C15.7361 73.5524 15.7658 73.2646 15.7994 72.9767C15.8449 72.5713 15.8924 72.1658 15.9418 71.7628C15.9418 71.7004 15.9577 71.6405 15.9656 71.5805C16.3272 68.6304 16.8185 65.7059 17.4375 62.8195C18.0875 59.792 18.9173 56.8255 19.9204 53.9433C20.9862 50.9233 22.2347 48.003 23.6556 45.2062H35.1956Z" fill="#04AD48"/>
<path opacity="0.1" d="M39.9915 81.1332V114.318H82.8753V81.1332H39.9915ZM39.9915 115.345V143.845C40.2368 143.905 40.4781 143.965 40.7215 144.015C41.0479 144.092 41.3763 144.161 41.7107 144.221L41.9085 144.255C42.0391 144.281 42.1717 144.303 42.3042 144.322C42.6346 144.38 42.965 144.423 43.2934 144.461C43.4477 144.48 43.608 144.495 43.7643 144.512L44.1461 144.545C44.3538 144.564 44.5596 144.579 44.7653 144.588C44.892 144.588 45.0186 144.6 45.1472 144.605C45.2758 144.61 45.345 144.605 45.4479 144.605H45.8218C45.9919 144.605 46.1621 144.605 46.3303 144.605H46.5479C46.718 144.605 46.8882 144.605 47.0563 144.586H47.0662C47.1849 144.586 47.3016 144.586 47.4203 144.569C47.454 144.572 47.4876 144.572 47.5212 144.569C47.6202 144.569 47.7191 144.569 47.8141 144.555C47.8364 144.553 47.8589 144.553 47.8813 144.555C48.1009 144.538 48.3225 144.516 48.5461 144.492C48.7696 144.468 48.9813 144.44 49.2049 144.411L49.654 144.344C51.4891 144.032 53.3039 143.564 55.0847 142.943C59.087 141.59 62.9983 139.697 66.9986 138.313C72.1662 136.525 77.8798 135.645 82.8733 137.821V115.345H39.9915ZM82.8753 44.1842V0.00479917C78.1807 -0.0578312 73.4988 0.607273 68.9434 1.98395C58.0839 5.29213 48.3324 12.4675 39.9915 21.6315V44.1819H42.1499V45.2062H39.9915V80.1064H82.8753V45.2062H50.9795V44.1795L82.8753 44.1842ZM137.97 29.2603C135.283 29.1451 132.612 28.1159 130.195 26.5206C125.577 23.4763 121.885 18.7696 117.762 14.8017C109.196 6.5324 98.5719 1.54014 87.6729 0.302272V44.1842H148.887L149.039 43.9899L137.97 29.2603ZM143.547 28.0608L149.46 35.9318V25.9905C147.47 26.2951 145.737 27.0028 143.547 28.0512V28.0608ZM149.46 150.922V115.345H136.85C136.818 115.194 136.783 115.04 136.743 114.887C136.781 115.04 136.814 115.194 136.848 115.345H87.6729V141.071C88.1398 141.491 88.6008 141.935 89.0578 142.381C89.551 142.871 90.041 143.366 90.5277 143.866L91.0184 144.358C91.2538 144.598 91.4932 144.838 91.7306 145.066C92.2067 145.531 92.6862 145.992 93.1689 146.448C93.4102 146.678 93.6529 146.904 93.8969 147.126C97.7612 150.708 101.837 153.94 106.092 156.797C107.045 157.442 108.009 158.063 108.978 158.67C109.623 159.073 110.273 159.468 110.927 159.855C111.908 160.436 112.897 160.996 113.895 161.535C123.087 166.538 132.808 169.971 142.779 171.735C144.992 172.13 147.215 172.442 149.448 172.671V150.917H149.646L149.46 150.922ZM87.6729 45.2062V80.1064H149.46V45.2062H87.6729ZM87.6729 81.1284V114.318H149.46V81.1332L87.6729 81.1284ZM154.256 25.9425V37.0497L161.802 27.0052C159.301 26.5046 156.786 26.1504 154.256 25.9425ZM154.256 81.1332V114.318H214.35V81.1332H154.256ZM214.138 153.553L214.35 115.345H154.256V173.057C158.127 173.252 162.003 173.195 165.869 172.887H165.936C167.783 172.743 169.621 172.538 171.45 172.272H171.492C181.254 170.895 190.8 167.803 199.828 163.094M225.943 86.5837C225.715 85.9439 225.481 85.3042 225.241 84.6645C224.794 83.465 224.323 82.2991 223.836 81.1356H219.148V114.318H231C230.99 104.919 229.028 95.3231 225.943 86.5837ZM219.148 115.345V148.211C222.485 144.332 225.308 139.891 227.338 134.815C229.781 128.7 230.899 122.084 230.992 115.343L219.148 115.345ZM219.148 71.463V80.0993H223.397C222.109 77.1304 220.69 74.2475 219.148 71.463ZM178.392 32.4557C178.08 32.3093 177.765 32.163 177.451 32.0239C174.134 30.5375 170.744 29.302 167.302 28.3247L155.752 43.6925L155.526 43.9875L155.674 44.1819H196.782C191.056 39.4046 184.883 35.4683 178.392 32.4557ZM197.988 45.2062H155.099L154.256 46.1394V80.1064H161.645H214.35V63.6495C209.584 56.6612 204.084 50.4606 197.988 45.2062Z" fill="#04AD48"/>
<path opacity="0.1" d="M35.1956 62.8123V80.1064H15.1821C15.1821 80.0057 15.194 79.9025 15.2019 79.8018C15.2197 79.5259 15.2375 79.2524 15.2573 78.9765C15.2771 78.655 15.3028 78.3336 15.3285 78.0169C15.3542 77.7003 15.38 77.3164 15.4116 76.9686C15.4433 76.6207 15.469 76.2681 15.5007 75.9202C15.5323 75.5724 15.564 75.2245 15.5996 74.8791C15.6352 74.5336 15.6668 74.1834 15.7064 73.8379C15.7361 73.5524 15.7658 73.2646 15.7994 72.9767C15.8449 72.5713 15.8924 72.1658 15.9418 71.7628C15.9418 71.7004 15.9577 71.6405 15.9656 71.5805C16.3272 68.6304 16.8185 65.7059 17.4375 62.8195L35.1956 62.8123Z" fill="#04AD48"/>
<path opacity="0.1" d="M15.1188 81.1332H35.1956V114.318H16.5868C16.5393 114.661 16.4918 115.002 16.4384 115.345H35.1956V142.103C35.164 142.103 35.1323 142.074 35.1027 142.06C34.5751 141.806 34.0475 141.536 33.5199 141.251C33.4072 141.189 33.2964 141.124 33.1816 141.064C32.6541 140.762 32.1265 140.442 31.5989 140.105C31.4149 139.987 31.2309 139.865 31.0509 139.74C28.122 137.758 25.46 135.246 23.1571 132.289C23.0878 132.21 23.0245 132.123 22.9592 132.049C22.6387 131.627 22.3242 131.2 22.0195 130.763C21.9047 130.602 21.794 130.439 21.6812 130.283C21.3211 129.751 20.9729 129.199 20.6366 128.645C20.5852 128.561 20.5377 128.479 20.4882 128.405C19.1104 126.093 17.9679 123.588 17.0854 120.944C17.0577 120.865 17.0319 120.779 17.0062 120.704C16.7332 119.865 16.4859 119.013 16.2722 118.145C16.1812 117.782 16.0922 117.425 16.017 117.048C15.9893 116.94 15.9676 116.83 15.9438 116.722C14.832 111.408 14.7034 105.886 14.7034 100.39C14.7034 99.75 14.7034 99.1103 14.7034 98.4706C14.7192 96.2267 14.741 93.9853 14.7687 91.7462C14.7792 91.1705 14.7891 90.5923 14.7983 90.0118C14.826 88.542 14.8656 87.069 14.917 85.5929C14.9289 85.1851 14.9447 84.7748 14.9625 84.3694C14.9705 84.1343 14.9803 83.8992 14.9922 83.6641C15.0278 82.8149 15.07 81.9712 15.1188 81.1332Z" fill="#04AD48"/>
<path opacity="0.1" d="M55.0867 50.2057V80.1064H39.9895V50.2057H42.142V40.082H50.9775V50.2057H55.0867Z" fill="#04AD48"/>
<path opacity="0.1" d="M55.0847 81.1308H39.9895V114.316H55.0847V81.1308Z" fill="#04AD48"/>
<path opacity="0.1" d="M39.9915 115.345H55.0867V142.933C53.306 143.555 51.4912 144.022 49.6559 144.332C49.5056 144.358 49.3572 144.38 49.2068 144.399C48.9853 144.43 48.7657 144.459 48.5461 144.483L47.8833 144.548H47.816L47.5232 144.567H47.4223C47.3036 144.567 47.1869 144.584 47.0682 144.586H47.0583C46.8882 144.586 46.72 144.6 46.5499 144.605H46.3322C46.1641 144.605 45.9959 144.605 45.8238 144.605H45.4518H45.1491C45.0205 144.605 44.8939 144.605 44.7653 144.586C44.5622 144.576 44.3565 144.562 44.1481 144.543L43.7662 144.509C43.608 144.495 43.4497 144.476 43.2934 144.456C42.961 144.421 42.6313 144.376 42.3042 144.32L41.9085 144.253L41.7107 144.219C41.3803 144.159 41.0519 144.092 40.7215 144.015C40.4762 143.962 40.2348 143.902 39.9915 143.84V115.345Z" fill="#04AD48"/>
<path opacity="0.1" d="M149.458 46.6744H137.01V80.104H149.458V46.6744Z" fill="#04AD48"/>
<path opacity="0.1" d="M149.46 81.1308V114.318H87.6729V100.003H120.584V108.448H137.01V81.1308H149.46Z" fill="#04AD48"/>
<path opacity="0.1" d="M149.656 150.929C149.591 150.929 149.526 150.929 149.458 150.914V172.685C147.228 172.463 145.006 172.152 142.791 171.752C132.817 169.989 123.092 166.558 113.895 161.556C111.24 160.104 108.639 158.522 106.092 156.809C101.838 153.95 97.7632 150.718 93.8989 147.138C92.9255 146.236 91.9666 145.314 91.0223 144.372C90.3674 143.715 89.7185 143.043 89.0577 142.393C88.6027 141.945 88.1417 141.501 87.6729 141.079V115.345H136.848C136.812 115.191 136.781 115.04 136.745 114.887C136.783 115.04 136.818 115.191 136.85 115.345H149.46V150.912C149.526 150.914 149.591 150.922 149.656 150.929Z" fill="#04AD48"/>
<path opacity="0.1" d="M181.926 44.1842H173.814V41.128H177.449V32.0239C177.764 32.1646 178.078 32.3085 178.39 32.4557V41.128H181.924L181.926 44.1842Z" fill="#04AD48"/>
<path opacity="0.1" d="M201.47 80.1064H161.645C161.649 80.1076 161.653 80.1076 161.657 80.1064H161.639H154.256V46.6768H156.349V71.3862H165.913V56.7525H173.816V45.2062H181.928V56.7597H189.827V71.3934H201.472L201.47 80.1064Z" fill="#04AD48"/>
<path opacity="0.1" d="M154.256 81.1332V114.318H201.472V81.1332H154.256ZM214.283 153.378L214.35 127.109H201.472V115.355H154.256V173.057C158.127 173.252 162.003 173.195 165.869 172.887H165.936C167.783 172.743 169.621 172.538 171.45 172.272H171.492C181.254 170.895 190.8 167.803 199.828 163.094" fill="#04AD48"/>
<path opacity="0.1" d="M219.978 115.345H230.992C230.897 122.084 229.781 128.702 227.338 134.815C225.308 139.894 222.485 144.334 219.147 148.213V127.102H219.978V115.345Z" fill="#04AD48"/>
<path opacity="0.1" d="M231 114.318H219.978V86.5836H225.943C229.027 95.3231 230.99 104.919 231 114.318Z" fill="#04AD48"/>
<path opacity="0.1" d="M149.46 55.968H142.791V66.4491H149.46V55.968Z" fill="#04AD48"/>
<path opacity="0.1" d="M149.46 77.6931H142.791V80.1065H149.46V77.6931Z" fill="#04AD48"/>
<path opacity="0.1" d="M149.46 81.1308H142.791V88.1718H149.46V81.1308Z" fill="#04AD48"/>
<path opacity="0.1" d="M149.46 99.4182H142.791V109.899H149.46V99.4182Z" fill="#04AD48"/>
<path opacity="0.1" d="M149.46 121.143H142.791V131.624H149.46V121.143Z" fill="#04AD48"/>
<path opacity="0.1" d="M149.46 150.912C149.525 150.912 149.591 150.912 149.658 150.929C149.593 150.929 149.527 150.929 149.46 150.914V153.349H142.791V142.868H149.46V150.912Z" fill="#04AD48"/>
<path opacity="0.1" d="M149.46 164.591V172.685C147.229 172.463 145.006 172.152 142.791 171.752V164.591H149.46Z" fill="#04AD48"/>
<path opacity="0.1" d="M116.255 113.548H87.6729V114.318H116.255V113.548Z" fill="#04AD48"/>
<path opacity="0.1" d="M116.255 115.343H87.6729V118.293H116.255V115.343Z" fill="#04AD48"/>
<path opacity="0.1" d="M116.255 127.966H87.6729V132.711H116.255V127.966Z" fill="#04AD48"/>
<path opacity="0.1" d="M116.255 142.384V147.129H93.8988C92.9254 146.23 91.9665 145.307 91.0222 144.36C90.3653 143.706 89.7164 143.034 89.0576 142.384H116.255Z" fill="#04AD48"/>
<path opacity="0.1" d="M116.255 156.799V161.556H113.895C111.24 160.104 108.639 158.522 106.092 156.809L116.255 156.799Z" fill="#04AD48"/>
<path opacity="0.1" d="M171.496 84.3478H165.869V91.1705H171.496V84.3478Z" fill="#04AD48"/>
<path opacity="0.1" d="M49.6698 52.5591H44.0432V59.3817H49.6698V52.5591Z" fill="#04AD48"/>
<path opacity="0.1" d="M49.6698 68.4066H44.0432V75.2293H49.6698V68.4066Z" fill="#04AD48"/>
<path opacity="0.1" d="M49.6698 84.2542H44.0432V91.0769H49.6698V84.2542Z" fill="#04AD48"/>
<path opacity="0.1" d="M49.6698 100.099H44.0432V106.922H49.6698V100.099Z" fill="#04AD48"/>
<path opacity="0.1" d="M49.6698 115.947H44.0432V122.77H49.6698V115.947Z" fill="#04AD48"/>
<path opacity="0.1" d="M49.6698 131.795H44.0432V138.617H49.6698V131.795Z" fill="#04AD48"/>
<path opacity="0.1" d="M192.975 84.3478H187.349V91.1705H192.975V84.3478Z" fill="#04AD48"/>
<path opacity="0.1" d="M171.496 101.177H165.869V107.999H171.496V101.177Z" fill="#04AD48"/>
<path opacity="0.1" d="M192.975 101.177H187.349V107.999H192.975V101.177Z" fill="#04AD48"/>
<path opacity="0.1" d="M171.496 118.003H165.869V124.826H171.496V118.003Z" fill="#04AD48"/>
<path opacity="0.1" d="M192.975 118.003H187.349V124.826H192.975V118.003Z" fill="#04AD48"/>
<path opacity="0.1" d="M171.496 134.832H165.869V141.654H171.496V134.832Z" fill="#04AD48"/>
<path opacity="0.1" d="M192.975 134.832H187.349V141.654H192.975V134.832Z" fill="#04AD48"/>
<path opacity="0.1" d="M171.496 151.661H165.869V158.483H171.496V151.661Z" fill="#04AD48"/>
<path opacity="0.1" d="M192.975 151.661H187.349V158.483H192.975V151.661Z" fill="#04AD48"/>
<path opacity="0.1" d="M165.869 172.887V168.487H171.494V172.26L165.869 172.887Z" fill="#04AD48"/>
<path opacity="0.1" d="M15.9419 71.5733V75.4764H35.1957V71.5733H15.9419ZM17.859 75.2317H16.2762V71.8204H17.859V75.2317ZM19.776 75.2317H18.1933V71.8204H19.776V75.2317ZM21.6891 75.2317H20.1064V71.8204H21.6891V75.2317ZM23.6062 75.2317H22.0235V71.8204H23.6062V75.2317ZM25.5213 75.2317H23.9386V71.8204H25.5213V75.2317ZM27.4384 75.2317H25.8557V71.8204H27.4384V75.2317ZM29.3554 75.2317H27.7727V71.8204H29.3554V75.2317ZM31.2705 75.2317H29.6878V71.8204H31.2705V75.2317ZM33.1856 75.2317H31.6029V71.8204H33.1856V75.2317ZM35.1027 75.2317H33.52V71.8204H35.1027V75.2317Z" fill="#04AD48"/>
<path opacity="0.1" d="M15.9419 82.9348V86.8379H35.1957V82.9348H15.9419ZM17.859 86.5932H16.2762V83.1819H17.859V86.5932ZM19.776 86.5932H18.1933V83.1819H19.776V86.5932ZM21.6891 86.5932H20.1064V83.1819H21.6891V86.5932ZM23.6062 86.5932H22.0235V83.1819H23.6062V86.5932ZM25.5213 86.5932H23.9386V83.1819H25.5213V86.5932ZM27.4384 86.5932H25.8557V83.1819H27.4384V86.5932ZM29.3554 86.5932H27.7727V83.1819H29.3554V86.5932ZM31.2705 86.5932H29.6878V83.1819H31.2705V86.5932ZM33.1856 86.5932H31.6029V83.1819H33.1856V86.5932ZM35.1027 86.5932H33.52V83.1819H35.1027V86.5932Z" fill="#04AD48"/>
<path opacity="0.1" d="M15.9419 94.2988V98.1995H35.1957V94.2988H15.9419ZM17.859 97.9524H16.2762V94.541H17.859V97.9524ZM19.776 97.9524H18.1933V94.541H19.776V97.9524ZM21.6891 97.9524H20.1064V94.541H21.6891V97.9524ZM23.6062 97.9524H22.0235V94.541H23.6062V97.9524ZM25.5213 97.9524H23.9386V94.541H25.5213V97.9524ZM27.4384 97.9524H25.8557V94.541H27.4384V97.9524ZM29.3554 97.9524H27.7727V94.541H29.3554V97.9524ZM31.2705 97.9524H29.6878V94.541H31.2705V97.9524ZM33.1856 97.9524H31.6029V94.541H33.1856V97.9524ZM35.1027 97.9524H33.52V94.541H35.1027V97.9524Z" fill="#04AD48"/>
<path opacity="0.1" d="M15.9419 105.66V109.561H35.1957V105.66H15.9419ZM17.859 109.316H16.2762V105.9H17.859V109.316ZM19.776 109.316H18.1933V105.9H19.776V109.316ZM21.6891 109.316H20.1064V105.9H21.6891V109.316ZM23.6062 109.316H22.0235V105.9H23.6062V109.316ZM25.5213 109.316H23.9386V105.9H25.5213V109.316ZM27.4384 109.316H25.8557V105.9H27.4384V109.316ZM29.3554 109.316H27.7727V105.9H29.3554V109.316ZM31.2705 109.316H29.6878V105.9H31.2705V109.316ZM33.1856 109.316H31.6029V105.9H33.1856V109.316ZM35.1027 109.316H33.52V105.9H35.1027V109.316Z" fill="#04AD48"/>
<path opacity="0.1" d="M16.0349 117.017C16.1101 117.386 16.1991 117.751 16.2901 118.113V117.264H17.8728V120.673H17.0241C17.0479 120.755 17.0736 120.839 17.1013 120.913H35.2036V117.017H16.0349ZM19.7939 120.673H18.2112V117.264H19.7939V120.673ZM21.707 120.673H20.1243V117.264H21.707V120.673ZM23.6241 120.673H22.0413V117.264H23.6241V120.673ZM25.5391 120.673H23.9564V117.264H25.5391V120.673ZM27.4562 120.673H25.8735V117.264H27.4562V120.673ZM29.3733 120.673H27.7906V117.264H29.3733V120.673ZM31.2884 120.673H29.7057V117.264H31.2884V120.673ZM33.2035 120.673H31.6207V117.264H33.2035V120.673ZM35.1205 120.673H33.5378V117.264H35.1205V120.673Z" fill="#04AD48"/>
<path opacity="0.1" d="M20.4941 128.379C20.5456 128.455 20.5931 128.542 20.6425 128.618H21.6891V130.257L22.0274 130.737V128.609H23.6101V132.049H22.9592C23.0225 132.128 23.0839 132.212 23.1571 132.289H35.1917V128.379H20.4941ZM25.5311 132.049H23.9484V128.623H25.5311V132.049ZM27.4482 132.049H25.8655V128.623H27.4482V132.049ZM29.3653 132.049H27.7826V128.623H29.3653V132.049ZM31.2804 132.049H29.6977V128.623H31.2804V132.049ZM33.1955 132.049H31.6128V128.623H33.1955V132.049ZM35.1125 132.049H33.5298V128.623H35.1125V132.049Z" fill="#04AD48"/>
<path opacity="0.1" d="M31.0569 139.74C31.2389 139.865 31.4229 139.98 31.6069 140.102V139.982H33.1896V141.064C33.3044 141.124 33.4132 141.189 33.5259 141.251V139.982H35.1087V142.06C35.1387 142.076 35.1698 142.09 35.2016 142.101V139.74H31.0569Z" fill="#04AD48"/>
<path opacity="0.1" d="M149.458 150.912H149.656H149.458ZM136.743 114.887C136.781 115.04 136.814 115.194 136.848 115.345C136.818 115.194 136.783 115.04 136.743 114.887ZM42.1499 44.1842V45.2062H50.9874V44.1794L42.1499 44.1842ZM149.46 150.912H149.658H149.46ZM136.743 114.887C136.781 115.04 136.814 115.194 136.848 115.345C136.818 115.194 136.783 115.04 136.743 114.887ZM149.458 150.912H149.656H149.458ZM136.743 114.887C136.781 115.04 136.814 115.194 136.848 115.345C136.818 115.194 136.783 115.04 136.743 114.887Z" fill="#04AD48"/>
<path opacity="0.1" d="M173.987 207C184.633 207 193.264 205.319 193.264 203.246C193.264 201.172 184.633 199.491 173.987 199.491C163.34 199.491 154.709 201.172 154.709 203.246C154.709 205.319 163.34 207 173.987 207Z" fill="#04AD48"/>
<path opacity="0.1" d="M87.0436 203.246C97.6903 203.246 106.321 201.565 106.321 199.491C106.321 197.418 97.6903 195.737 87.0436 195.737C76.397 195.737 67.7661 197.418 67.7661 199.491C67.7661 201.565 76.397 203.246 87.0436 203.246Z" fill="#04AD48"/>
<path d="M109.237 100.217C109.233 100.193 109.222 100.172 109.208 100.155C108.913 99.802 105.154 93.3559 105.154 93.3559C105.154 93.3559 104.956 92.6363 104.636 91.7007C104.738 91.5394 104.815 91.3563 104.863 91.1609C104.88 91.0781 104.893 90.9939 104.901 90.909C104.901 90.8826 104.916 90.861 104.922 90.8346C104.991 90.5093 104.984 90.1672 104.903 89.8462C104.881 89.9286 104.853 90.0088 104.821 90.0861C104.747 89.8067 104.648 89.538 104.525 89.2849C104.026 88.2437 103.314 87.3657 102.79 86.351C101.996 84.7743 101.68 82.9112 101.897 81.0828C101.897 81.1764 101.897 81.2723 101.897 81.3659C101.917 81.0033 101.957 80.6426 102.016 80.2864C102.099 79.8808 102.209 79.4844 102.346 79.1013C102.817 77.7938 103.579 76.6543 104.042 75.3421C104.197 74.8995 104.315 74.4389 104.394 73.9675C104.557 73.1801 104.617 72.3664 104.57 71.5565C104.57 71.7484 104.544 71.9403 104.521 72.1299C104.471 70.1827 103.822 68.3285 102.703 66.9313C101.086 64.9617 98.7656 64.1965 96.5458 63.7934C95.613 63.6615 94.7222 63.2492 93.9541 62.5939C93.1014 61.9246 91.9995 61.7639 91.0023 61.9102C89.8563 62.0605 88.7914 62.6989 87.9971 63.7119C86.9427 65.1177 86.4857 67.1088 85.2551 68.2939C84.5092 69.0136 83.5636 69.3494 82.695 69.8388C81.8265 70.3282 81.0055 71.0383 80.7265 72.0891C80.7265 72.0891 80.7265 72.0747 80.7265 72.0675V72.1275L80.7147 72.1658C80.4258 73.4085 80.9837 74.6728 81.2745 75.913C81.5772 77.1965 81.597 78.5519 81.6129 79.8785C81.6346 81.5002 81.6544 83.1243 81.6326 84.7484C81.6227 85.3866 81.6049 86.0319 81.5654 86.6676C81.0971 86.8393 80.6423 87.0608 80.2062 87.3297C79.763 87.68 78.1051 89.851 78.1051 89.851L74.8625 104.873L74.9061 104.933L74.8625 105.137L75.0268 105.092C75.4857 105.691 76.8568 107.4 78.3366 108.465L78.4751 111.411C78.4751 111.411 78.6413 114.366 80.8828 115.587C80.9343 116.612 81.0945 120.771 80.3526 122.419C79.8389 123.623 79.5972 124.971 79.6523 126.325C79.6523 126.325 79.9114 128.825 79.6166 130.139C79.4444 131.018 79.4316 131.931 79.5791 132.817C79.5791 132.817 79.5791 133.107 79.5791 133.606C79.5791 136.266 79.6048 144.792 79.5791 145.757C79.5415 146.896 79.5791 163.749 79.5791 163.749C79.5791 163.749 79.3951 172.172 78.8055 174.453C78.2159 176.735 78.3643 184.289 78.3643 184.289C78.3643 184.289 77.9944 193.287 79.3021 195.063C79.3021 195.142 79.2902 195.223 79.2882 195.303C79.2882 195.339 79.2882 195.379 79.2882 195.415C79.2724 196.099 79.3812 196.826 79.8659 197.049C80.8551 197.51 82.1628 198.891 82.4101 199.287C82.6574 199.683 84.0957 200.669 85.9713 200.405C87.1462 200.245 88.3286 200.179 89.5106 200.208C89.5106 200.208 90.2505 200.045 90.0112 198.93C89.8568 198.234 89.2792 197.164 88.8676 196.461C88.9428 196.485 89.016 196.504 89.0853 196.521L89.1565 196.538H89.2119C89.2422 196.54 89.2726 196.54 89.3029 196.538H89.3425C89.3793 196.542 89.4164 196.542 89.4533 196.538C89.9498 196.48 91.8016 197.526 92.132 198.217C92.4624 198.908 93.6277 199.434 94.5061 199.566C95.0284 199.642 96.346 199.513 97.4519 199.34C98.0089 199.27 98.5605 199.148 99.1019 198.975C99.3631 198.855 99.4185 198.472 99.3433 198.04C99.2545 197.491 99.0128 196.997 98.6588 196.639C98.3382 196.363 97.9149 195.636 97.6023 195.041L97.5192 194.88C98.0712 194.242 99.0683 192.155 99.371 191.723C99.739 191.198 98.7774 171.985 98.7774 171.985V162.353L100.251 153.237L101.282 148.412L102.166 141.129C102.166 141.129 103.714 132.622 103.237 131.787C103.237 131.771 102.841 123.012 102.426 120.908C102.246 119.97 102.291 117.859 102.398 115.806C102.51 115.671 102.587 115.501 102.622 115.315C102.657 115.129 102.648 114.935 102.596 114.755C102.566 114.632 102.528 114.512 102.481 114.397C102.481 114.361 102.481 114.323 102.481 114.287C103.336 113.81 104.229 113.442 105.146 113.188C106.62 112.838 106.252 111.917 106.252 111.917C106.252 111.917 106.584 111.128 106.804 110.645C107.023 110.163 106.841 105.907 106.804 105.557C106.79 105.416 106.699 104.634 106.594 103.746C107.067 103.338 107.682 102.832 108.353 102.352C109.629 101.436 109.342 100.469 109.237 100.217ZM90.0072 161.038C90.0072 161.038 88.9013 164.459 89.3444 165.335C89.7876 166.21 89.2712 169.461 89.2712 169.461L88.9013 174.285C88.9013 174.285 87.8705 183.233 88.2385 185.337C88.5274 186.988 88.6342 191.918 88.6678 193.974C88.6425 193.986 88.618 194 88.5946 194.017L88.5452 194.048C88.7153 193.239 88.6441 191.603 87.7993 188.312L87.7281 174.717C87.7281 174.717 87.5975 159.013 88.6203 157.257C89.6432 155.501 90.0052 152.519 90.0052 152.519C90.0052 152.519 89.7836 156.821 89.6392 157.96C89.4948 159.1 90.0072 161.038 90.0072 161.038ZM87.9477 194.83C87.9378 194.859 87.9259 194.888 87.918 194.914L87.8626 194.828C87.8909 194.831 87.9193 194.832 87.9477 194.83Z" fill="url(#paint0_linear_308_244)"/>
<path d="M99.2266 200.218C98.6549 200.484 95.5547 200.938 94.6882 200.811C93.8216 200.684 92.6742 200.151 92.3477 199.455C92.0213 198.76 90.1913 197.709 89.7006 197.776C89.4995 197.783 89.2988 197.749 89.1071 197.675C88.7686 197.551 88.438 197.397 88.1179 197.215C88.0732 196.912 88.0806 196.602 88.1397 196.303C88.1511 196.243 88.1656 196.183 88.1832 196.125C88.2987 195.732 88.5375 195.409 88.8479 195.228L88.9192 195.187C89.0563 195.116 89.1996 195.063 89.3465 195.029C90.9015 194.667 97.3175 195.394 97.3175 195.394C97.3175 195.394 97.4975 195.785 97.7448 196.269C98.0534 196.869 98.4729 197.601 98.7894 197.877C99.14 198.24 99.378 198.738 99.464 199.287C99.5392 199.712 99.4838 200.101 99.2266 200.218Z" fill="white"/>
<path opacity="0.1" d="M99.2266 200.218C98.6548 200.484 95.5566 200.938 94.6901 200.811C93.8235 200.684 92.6761 200.149 92.3477 199.455C92.0192 198.762 90.1932 197.709 89.7025 197.776C89.2119 197.843 88.1198 197.215 88.1198 197.215C88.1198 197.215 87.9497 196.255 88.4443 195.6L89.4335 196.452C89.4335 196.452 92.0806 197.447 92.5712 198.371C93.0619 199.295 93.9561 199.81 95.248 199.904C96.2135 199.981 98.4312 199.525 99.4699 199.297C99.5391 199.712 99.4857 200.101 99.2266 200.218Z" fill="black"/>
<path d="M89.7561 201.442C88.5891 201.414 87.4219 201.481 86.2622 201.641C84.4045 201.905 82.986 200.921 82.7387 200.516C82.4914 200.11 81.2114 198.74 80.2281 198.261C79.7473 198.035 79.6346 197.301 79.6563 196.615C79.6563 196.579 79.6563 196.538 79.6563 196.502C79.6746 196.067 79.7276 195.636 79.8146 195.214L87.5126 195.015L88.1793 196.111L88.2822 196.279L88.6877 196.948C88.6877 196.948 88.8717 197.241 89.1131 197.668C89.5206 198.388 90.0904 199.45 90.2428 200.153C90.4861 201.278 89.7561 201.442 89.7561 201.442Z" fill="white"/>
<path opacity="0.1" d="M89.7561 201.442C88.5891 201.414 87.4219 201.481 86.2622 201.641C84.4065 201.905 82.986 200.921 82.7407 200.516C82.4953 200.11 81.2114 198.728 80.2281 198.265C79.7473 198.04 79.6346 197.306 79.6563 196.62C80.2063 196.776 81.3617 197.174 81.8148 197.867C82.4083 198.793 83.4707 200.35 84.9802 200.448C86.1989 200.528 89.1665 200.264 90.2546 200.158C90.4881 201.278 89.7561 201.442 89.7561 201.442Z" fill="black"/>
<path opacity="0.1" d="M88.8401 195.219C88.7511 196.02 88.4761 196.236 88.2782 196.284C88.2299 196.295 88.1802 196.295 88.1318 196.284C88.1059 196.282 88.08 196.277 88.0547 196.269C88.0547 196.269 81.1422 198.121 79.7454 196.622C79.7099 196.583 79.6769 196.542 79.6465 196.497C79.6647 196.063 79.7177 195.631 79.8048 195.209L87.5027 195.01L88.1694 196.106C88.2849 195.713 88.5238 195.39 88.8342 195.209L88.8401 195.219Z" fill="black"/>
<path opacity="0.1" d="M97.743 196.26C97.5886 196.466 97.46 196.584 97.3789 196.543C97.0149 196.365 94.0315 195.749 93.0838 196.279C92.1362 196.809 88.9292 196.365 88.9292 196.365C88.9292 196.365 88.9292 195.905 88.9114 195.166C89.0485 195.094 89.1919 195.041 89.3387 195.008C90.8937 194.645 97.3097 195.372 97.3097 195.372C97.3097 195.372 97.4976 195.775 97.743 196.26Z" fill="black"/>
<path d="M102.258 141.995L101.383 149.322L100.366 154.177L98.9101 163.356V173.071C98.9101 173.071 99.8558 192.402 99.4918 192.93C99.1277 193.458 97.7448 196.464 97.3808 196.289C97.0168 196.113 94.0333 195.495 93.0857 196.022C92.138 196.55 88.9311 196.111 88.9311 196.111C88.9311 196.111 88.8579 188.609 88.4938 186.491C88.1298 184.373 89.1487 175.37 89.1487 175.37L89.5127 170.516C89.5127 170.516 90.0231 167.249 89.5859 166.366C89.1487 165.483 90.2408 162.048 90.2408 162.048C90.2408 162.048 89.7323 160.103 89.8787 158.956C90.0251 157.809 90.2408 153.484 90.2408 153.484C90.2408 153.484 89.8787 156.487 88.8677 158.251C87.8568 160.014 87.9854 175.816 87.9854 175.816L88.0566 189.49C89.8787 196.73 88.0566 196.022 88.0566 196.022C88.0566 196.022 81.1441 197.877 79.7473 196.375C78.3506 194.873 78.7502 185.421 78.7502 185.421C78.7502 185.421 78.6058 177.831 79.1874 175.538C79.7691 173.244 79.9531 164.769 79.9531 164.769C79.9531 164.769 79.9155 147.82 79.9531 146.675C79.9808 145.716 79.9531 137.125 79.9531 134.441C79.9531 133.942 79.9531 133.647 79.9531 133.647L80.788 131.133L90.68 129.631H95.4123C95.4123 129.631 102.535 131.66 103.27 132.536C103.286 132.551 103.3 132.568 103.31 132.589C103.787 133.436 102.258 141.995 102.258 141.995Z" fill="#AADBFF"/>
<path opacity="0.1" d="M90.2468 180.479C90.2468 180.479 92.4231 186.834 93.4499 187.276C94.4766 187.717 90.2468 180.479 90.2468 180.479Z" fill="black"/>
<path opacity="0.1" d="M91.052 189.835C91.052 189.835 98.3998 190.277 98.3266 191.248C98.2534 192.22 91.052 189.835 91.052 189.835Z" fill="black"/>
<path opacity="0.1" d="M81.2212 187.295C81.512 187.628 86.826 188.254 86.3888 188.864C85.9515 189.473 81.6584 190.658 81.6584 190.658L81.2212 187.295Z" fill="black"/>
<path opacity="0.1" d="M80.3489 176.332C80.3489 176.595 81.441 184.805 81.7338 185.157C82.0266 185.51 84.4264 185.863 84.4264 185.863L80.3489 176.332Z" fill="black"/>
<path d="M88.2722 64.1221C87.2296 65.5351 86.7785 67.5382 85.5637 68.7329C84.8258 69.4526 83.892 69.7957 83.0334 70.2851C82.1747 70.7745 81.324 71.5205 81.0688 72.6289C80.7839 73.8763 81.3339 75.1502 81.6228 76.3976C81.9215 77.6883 81.9393 79.0365 81.9571 80.3871C81.9769 82.0208 81.9987 83.6545 81.9749 85.2882C81.9393 87.8335 81.7652 90.4964 80.6514 92.6531C84.6735 94.2052 88.9508 94.4163 93.1687 94.6154C93.9793 94.6855 94.7935 94.6606 95.6002 94.5411C96.2991 94.3722 96.9905 94.16 97.6716 93.9053C99.0181 93.4733 100.406 93.258 101.798 93.2648C102.406 93.2648 103.025 93.3104 103.611 93.1185C104.196 92.9265 104.76 92.4348 104.918 91.7247C105.059 91.0865 104.853 90.4076 104.584 89.8343C104.093 88.7883 103.397 87.9151 102.871 86.8835C102.334 85.7939 102.015 84.5666 101.94 83.3003C101.866 82.034 102.037 80.7642 102.441 79.5931C102.908 78.276 103.66 77.1293 104.119 75.8099C104.589 74.3932 104.714 72.8428 104.479 71.3425C104.244 69.8423 103.659 68.4554 102.794 67.3463C101.197 65.3648 98.9061 64.5971 96.714 64.1893C95.791 64.0571 94.9104 63.6445 94.1539 62.9898C93.3131 62.3181 92.223 62.1549 91.2378 62.3037C90.1012 62.4581 89.0484 63.1036 88.2722 64.1221Z" fill="#3F3D56"/>
<g opacity="0.1">
<path d="M102.503 78.2088C102.1 79.3648 101.927 80.6199 101.998 81.8721C102.043 80.9766 102.213 80.0971 102.503 79.2716C102.968 77.9545 103.72 76.8078 104.179 75.4884C104.554 74.3867 104.712 73.1939 104.64 72.0051C104.599 72.8383 104.443 73.6574 104.179 74.4281C103.72 75.7475 102.968 76.8918 102.503 78.2088Z" fill="black"/>
<path d="M82.0168 80.0608C82.0287 81.0012 82.0405 81.944 82.0425 82.8844C82.0425 81.589 82.0326 80.2959 82.0168 79.0029C82.001 77.6619 81.9812 76.3041 81.6825 75.011C81.4846 74.1906 81.1918 73.3581 81.0889 72.5305C80.9129 73.706 81.4134 74.8983 81.6825 76.0714C81.9812 77.3524 82.001 78.7198 82.0168 80.0608Z" fill="black"/>
<path d="M103.678 91.7462C103.085 91.9405 102.475 91.8974 101.868 91.8926C100.476 91.8818 99.0893 92.0932 97.743 92.5211C97.0618 92.7747 96.3705 92.986 95.6716 93.1544C94.8644 93.276 94.0494 93.3017 93.2382 93.2312C89.1627 93.0369 85.0298 92.8282 81.1264 91.4152C81.0105 91.7289 80.8783 92.0333 80.7307 92.3268C84.7528 93.8765 89.0301 94.09 93.2461 94.2891C94.0573 94.3596 94.8724 94.3339 95.6795 94.2124C96.3759 94.0456 97.0646 93.835 97.743 93.5814C99.0865 93.1519 100.471 92.9382 101.86 92.9457C102.467 92.9457 103.085 92.9913 103.67 92.797C104.256 92.6027 104.82 92.1157 104.978 91.4056C105.045 91.0767 105.038 90.7322 104.958 90.4076C104.782 91.0793 104.238 91.5471 103.678 91.7462Z" fill="black"/>
</g>
<path d="M97.818 88.9035C97.6716 89.3017 97.0544 92.7418 96.908 93.0945C96.7616 93.4471 95.9623 99.0919 95.8891 99.4086C95.8159 99.7252 90.6206 98.0843 90.6206 98.0843L87.4928 94.9057L84.2779 91.0266C84.2779 91.0266 84.1829 87.5265 86.551 86.4037C86.712 86.3271 86.8773 86.2646 87.0456 86.2166C89.9183 85.3794 89.6294 74.7879 89.6294 74.7879L95.5251 77.8754C95.5251 77.8754 94.433 84.0551 94.4706 85.2474C94.4805 85.6481 94.7396 85.8976 95.078 86.0487C95.601 86.2291 96.1456 86.3005 96.6884 86.2598C96.6884 86.2598 97.9644 88.5076 97.818 88.9035Z" fill="#FBBEBE"/>
<path d="M108.373 100.51L109.21 100.776C109.21 100.776 109.829 101.918 108.373 102.981C107.448 103.662 106.561 104.414 105.716 105.233L101.413 106.821L100.584 103.667L104.588 99.9819L108.373 100.51Z" fill="#AADBFF"/>
<path opacity="0.1" d="M108.256 99.8236L109.093 100.09C109.093 100.09 109.712 101.232 108.256 102.295C107.331 102.976 106.444 103.728 105.599 104.547L101.296 106.135L100.467 102.981L104.471 99.2958L108.256 99.8236Z" fill="black"/>
<path d="M76.9696 103.556L75.2959 105.543C75.2959 105.543 78.3149 109.779 80.6376 110.043C82.9602 110.307 84.4579 106.821 84.4579 106.821L82.4478 102.983L76.9696 103.556Z" fill="#AADBFF"/>
<path opacity="0.1" d="M86.007 101.397L84.3333 103.383C84.3333 103.383 87.3523 107.62 89.6749 107.883C91.9976 108.147 93.4952 104.662 93.4952 104.662L91.4852 100.823L86.007 101.397Z" fill="#AADBFF"/>
<path opacity="0.1" d="M92.8681 81.7089C96.0837 81.7089 98.6905 78.548 98.6905 74.6488C98.6905 70.7495 96.0837 67.5886 92.8681 67.5886C89.6524 67.5886 87.0457 70.7495 87.0457 74.6488C87.0457 78.548 89.6524 81.7089 92.8681 81.7089Z" fill="black"/>
<path d="M92.8681 81.1788C96.0837 81.1788 98.6905 78.0178 98.6905 74.1186C98.6905 70.2194 96.0837 67.0584 92.8681 67.0584C89.6524 67.0584 87.0457 70.2194 87.0457 74.1186C87.0457 78.0178 89.6524 81.1788 92.8681 81.1788Z" fill="#FBBEBE"/>
<path opacity="0.1" d="M103.314 133.39C101.988 133.574 100.682 133.929 99.4186 134.448C97.2424 135.326 80.1886 134.462 79.9512 134.448C79.9512 133.949 79.9512 133.654 79.9512 133.654L80.7861 131.14L90.6781 129.638H95.4104C95.4104 129.638 102.533 131.668 103.269 132.543C103.298 133.071 103.314 133.39 103.314 133.39Z" fill="black"/>
<path opacity="0.1" d="M97.818 88.9035C97.6716 89.3017 97.0544 92.7418 96.908 93.0945C96.7616 93.4471 95.9623 99.0919 95.8891 99.4086C95.8159 99.7252 90.6206 98.0843 90.6206 98.0843L87.4928 94.9057L84.2779 91.0266C84.2779 91.0266 84.1829 87.5265 86.551 86.4037L92.4309 94.601L95.078 86.0487C95.601 86.2291 96.1456 86.3005 96.6884 86.2598C96.6884 86.2598 97.9644 88.5076 97.818 88.9035Z" fill="black"/>
<path d="M92.4308 94.8649L86.4125 86.4685C86.0602 86.1958 85.6576 86.0336 85.2407 85.9963C84.8239 85.959 84.406 86.0479 84.0246 86.255C82.6773 86.9627 81.0035 87.536 80.5663 87.8887C80.1291 88.2413 78.491 90.4244 78.491 90.4244L83.3697 105.9L81.2212 116.093C81.2212 116.093 81.5496 121.302 80.7127 123.199C80.2032 124.412 79.9644 125.766 80.0203 127.126C80.0203 127.126 80.2755 129.643 79.9847 130.965C79.8147 131.848 79.8019 132.766 79.9471 133.656C79.9471 133.656 97.2363 134.539 99.4185 133.656C100.682 133.135 101.988 132.781 103.314 132.598C103.314 132.598 102.918 123.77 102.523 121.652C102.127 119.534 102.851 111.459 102.851 111.459L102.378 102.808L105.215 93.9317C105.215 93.9317 103.678 88.2413 102.075 87.668C102.075 87.668 99.1652 86.8283 98.546 86.4325C97.9268 86.0367 96.1066 85.6816 96.1066 85.6816L95.1511 86.0703L92.4308 94.8649Z" fill="#AADBFF"/>
<path opacity="0.1" d="M100.828 102.516L88.1636 101.472C87.8431 101.445 87.5656 101.739 87.5438 102.127L86.1842 126.373C86.1624 126.762 86.4045 127.098 86.725 127.125L99.3892 128.169C99.7097 128.195 99.9872 127.902 100.009 127.513L101.369 103.267C101.39 102.879 101.148 102.542 100.828 102.516Z" fill="black"/>
<path d="M101.264 101.989L88.5996 100.945C88.2791 100.919 88.0016 101.212 87.9798 101.601L86.6202 125.846C86.5984 126.235 86.8406 126.572 87.1611 126.598L99.8252 127.642C100.146 127.669 100.423 127.375 100.445 126.986L101.805 102.741C101.826 102.352 101.584 102.016 101.264 101.989Z" fill="#3F3D56"/>
<path d="M100.846 103.89L88.8015 102.897L87.5638 124.969L99.6081 125.962L100.846 103.89Z" fill="white"/>
<path opacity="0.1" d="M99.7658 109.524L89.9272 108.688L89.7353 112.013L99.5739 112.849L99.7658 109.524Z" fill="black"/>
<path opacity="0.1" d="M99.4099 122.737L97.8486 122.608L97.7515 124.341L99.3128 124.47L99.4099 122.737Z" fill="black"/>
<path opacity="0.1" d="M97.8698 118.555L89.8777 117.896L89.7805 119.629L97.7726 120.288L97.8698 118.555Z" fill="black"/>
<path d="M99.3552 103.064L91.0334 102.378L90.8841 105.042L99.2058 105.728L99.3552 103.064Z" fill="#3F3D56"/>
<path opacity="0.1" d="M99.3552 103.064L91.0334 102.378L90.8841 105.042L99.2058 105.728L99.3552 103.064Z" fill="black"/>
<path opacity="0.1" d="M93.159 132.903C93.159 132.903 93.0858 145.968 90.2468 153.469C90.2468 153.469 93.6695 143.583 93.6695 143.187C93.6695 142.792 95.5608 138.641 95.0543 137.406C94.5479 136.17 93.159 132.903 93.159 132.903Z" fill="black"/>
<path opacity="0.1" d="M93.3132 72.353C93.2044 71.1966 93.4379 70.031 93.972 69.064C93.9085 70.0332 94.1345 70.9979 94.6089 71.7818C95.0832 72.5657 95.7742 73.1167 96.5558 73.3341C96.4891 73.2639 96.4415 73.1709 96.4192 73.0673C96.397 72.9637 96.4011 72.8543 96.4311 72.7536C96.8367 73.3101 97.1473 73.9699 97.6063 74.4592C98.0653 74.9486 98.7538 75.2413 99.2939 74.8935C100.028 74.4137 100.036 73.1494 99.8459 72.1658C99.4383 70.0712 98.6021 68.1348 97.4144 66.5354C97.1181 66.052 96.7335 65.6583 96.2907 65.3853C95.8479 65.1123 95.359 64.9673 94.8623 64.9617C93.7385 64.8562 92.5713 64.9761 91.5643 65.5879C90.9976 65.9628 90.4668 66.4125 89.9816 66.9289L87.2118 69.6685C86.9453 69.9013 86.7172 70.1926 86.5391 70.5273C86.4203 70.8072 86.349 71.1131 86.3294 71.4269C86.2587 72.3242 86.3956 73.2276 86.7248 74.0357C87.054 74.8438 87.5625 75.5247 88.1931 76.0018C88.1798 75.2926 88.3406 74.5947 88.6552 73.9967C88.9698 73.3986 89.4239 72.9275 89.9598 72.6432C90.0437 72.7283 90.1117 72.8342 90.1591 72.9538C90.2066 73.0734 90.2324 73.2039 90.2348 73.3365L90.8184 72.0747C90.9052 71.8451 91.042 71.6485 91.2141 71.5061C91.5742 71.2662 92.0233 71.5493 92.3299 71.8876C92.6366 72.2258 92.9353 72.648 93.3468 72.7008L93.3626 70.8224" fill="black"/>
<path opacity="0.1" d="M93.3132 72.353C93.2044 71.1966 93.4379 70.031 93.972 69.064C93.9085 70.0332 94.1345 70.9979 94.6089 71.7818C95.0832 72.5657 95.7742 73.1167 96.5558 73.3341C96.4891 73.2639 96.4415 73.1709 96.4192 73.0673C96.397 72.9637 96.4011 72.8543 96.4311 72.7536C96.8367 73.3101 97.1473 73.9699 97.6063 74.4592C98.0653 74.9486 98.7538 75.2413 99.2939 74.8935C100.028 74.4137 100.036 73.1494 99.8459 72.1658C99.4383 70.0712 98.6021 68.1348 97.4144 66.5354C97.1181 66.052 96.7335 65.6583 96.2907 65.3853C95.8479 65.1123 95.359 64.9673 94.8623 64.9617C93.7385 64.8562 92.5713 64.9761 91.5643 65.5879C90.9976 65.9628 90.4668 66.4125 89.9816 66.9289L87.2118 69.6685C86.9453 69.9013 86.7172 70.1926 86.5391 70.5273C86.4203 70.8072 86.349 71.1131 86.3294 71.4269C86.2587 72.3242 86.3956 73.2276 86.7248 74.0357C87.054 74.8438 87.5625 75.5247 88.1931 76.0018C88.1798 75.2926 88.3406 74.5947 88.6552 73.9967C88.9698 73.3986 89.4239 72.9275 89.9598 72.6432C90.0437 72.7283 90.1117 72.8342 90.1591 72.9538C90.2066 73.0734 90.2324 73.2039 90.2348 73.3365L90.8184 72.0747C90.9052 71.8451 91.042 71.6485 91.2141 71.5061C91.5742 71.2662 92.0233 71.5493 92.3299 71.8876C92.6366 72.2258 92.9353 72.648 93.3468 72.7008L93.3626 70.8224" fill="black"/>
<path d="M93.3133 72.0891C93.2042 70.9319 93.4377 69.7654 93.9721 68.7977C93.794 70.7168 94.987 72.6984 96.5578 73.0678C96.4911 72.9982 96.4434 72.9056 96.4211 72.8023C96.3989 72.6991 96.4031 72.59 96.4332 72.4897C96.8388 73.0463 97.1494 73.7036 97.6084 74.1954C98.0674 74.6871 98.7558 74.9774 99.2959 74.6272C100.03 74.1474 100.038 72.8831 99.8479 71.9019C99.4403 69.8073 98.6041 67.8709 97.4165 66.2716C97.048 65.7269 96.5835 65.2891 96.0573 64.9905C95.6764 64.8197 95.276 64.7209 94.8703 64.6978C93.7465 64.5923 92.5793 64.7098 91.5723 65.3216C91.006 65.6982 90.4752 66.1487 89.9895 66.665L87.2198 69.4046C86.9529 69.6368 86.7246 69.9282 86.5471 70.2634C86.428 70.5432 86.3567 70.8491 86.3374 71.1631C86.2668 72.0599 86.4038 72.9629 86.733 73.7706C87.0622 74.5783 87.5706 75.2588 88.2011 75.7355C88.1883 75.0265 88.3493 74.3288 88.6638 73.7309C88.9784 73.133 89.4322 72.6618 89.9678 72.3769C90.0514 72.4624 90.1192 72.5683 90.1666 72.6878C90.214 72.8073 90.24 72.9377 90.2428 73.0702L90.8244 71.8132C90.9107 71.5832 91.0476 71.3864 91.2201 71.2446C91.5802 71.0047 92.0293 71.2878 92.3359 71.6261C92.6426 71.9643 92.9413 72.3841 93.3528 72.4393L93.3687 70.5585" fill="#3F3D56"/>
<path d="M96.0712 116.621C95.5628 116.309 87.1546 117.9 87.1546 117.9C87.1546 117.9 85.7697 117.42 82.4222 116.753C79.0748 116.086 78.8611 112.118 78.8611 112.118L78.4951 104.175L79.6248 102.976L84.464 106.814C84.464 106.814 84.5391 108.755 84.464 109.105C84.4165 109.345 84.2899 109.631 84.3017 109.825C84.3054 109.878 84.3233 109.927 84.3526 109.966C84.3819 110.005 84.4211 110.031 84.464 110.041C84.7924 110.142 89.2675 111.02 89.2675 111.02C89.2675 111.02 99.6403 110.158 102.226 114.395C102.431 114.706 102.586 115.061 102.683 115.441C103.324 118.336 96.5322 116.897 96.0712 116.621Z" fill="#FBBEBE"/>
<path opacity="0.1" d="M102.689 115.458C102.293 115.671 102.048 115.825 102.048 115.825C102.048 115.825 98.3365 115.693 96.2513 114.776C94.166 113.86 91.6317 114.023 91.6317 114.023C91.6317 114.023 82.9426 112.209 84.2899 109.842C84.2935 109.894 84.3114 109.944 84.3408 109.983C84.3701 110.022 84.4092 110.048 84.4521 110.058C84.7805 110.158 89.2557 111.036 89.2557 111.036C89.2557 111.036 99.6284 110.175 102.214 114.412C102.425 114.721 102.586 115.076 102.689 115.458Z" fill="black"/>
<path d="M106.297 101.481C106.297 101.481 106.808 105.85 106.843 106.205C106.879 106.56 107.063 110.837 106.843 111.324C106.624 111.811 106.297 112.603 106.297 112.603C106.297 112.603 106.661 113.529 105.205 113.884C103.749 114.239 102.04 115.295 102.04 115.295C102.04 115.295 98.3265 115.163 96.2531 114.237C94.1797 113.311 91.6316 113.486 91.6316 113.486C91.6316 113.486 80.602 111.19 85.3343 108.388C90.0667 105.586 93.4141 109.381 93.4141 109.381L98.6905 108.985C98.6905 108.985 100.657 107.527 101.203 107.661C101.589 107.721 101.98 107.644 102.331 107.44L102.368 102.805L106.297 101.481Z" fill="#FBBEBE"/>
<path opacity="0.1" d="M79.5417 90.7579L78.4852 90.6907L75.2842 105.804C75.2842 105.804 78.7404 104.744 80.2302 105.804C81.7199 106.865 84.4521 107.083 84.4521 107.083L83.4332 95.0352L79.5417 90.7579Z" fill="black"/>
<path d="M79.5417 90.4916L78.4852 90.4244L75.2842 105.538C75.2842 105.538 78.7404 104.478 80.2302 105.538C81.7199 106.598 84.4521 106.817 84.4521 106.817L83.4332 94.7689L79.5417 90.4916Z" fill="#AADBFF"/>
<path opacity="0.1" d="M103.751 93.8022L105.205 94.2004C105.205 94.2004 108.919 100.678 109.21 101.04C109.5 101.402 107.825 102.719 107.134 102.719C106.444 102.719 103.059 103.199 102.076 104.307C101.092 105.416 101.502 99.838 101.502 99.7108C101.502 99.5837 102.722 96.0644 102.722 96.0644L103.751 93.8022Z" fill="black"/>
<path d="M103.751 93.5383L105.205 93.9341C105.205 93.9341 108.919 100.423 109.21 100.776C109.5 101.129 107.825 102.455 107.134 102.455C106.444 102.455 103.059 102.935 102.076 104.043C101.092 105.152 101.502 99.5741 101.502 99.4469C101.502 99.3198 102.73 95.7885 102.73 95.7885L103.751 93.5383Z" fill="#AADBFF"/>
<g opacity="0.1">
<path d="M93.9621 68.8193C93.9536 68.6353 93.9569 68.4508 93.972 68.2675C93.6708 68.8156 93.4636 69.4316 93.3627 70.0787V70.6353C93.3627 70.6353 93.3627 70.6233 93.3627 70.6161V70.7481C93.3627 71.1367 93.3627 71.5277 93.3528 71.9163H93.3251V72.0963C93.3251 72.0339 93.3251 71.9739 93.3152 71.9116C92.9195 71.8348 92.6366 71.4318 92.3418 71.1103C92.047 70.7888 91.5861 70.4818 91.226 70.7289C91.0535 70.8707 90.9166 71.0674 90.8303 71.2974L90.2427 72.5545C90.2401 72.4222 90.2143 72.2921 90.1668 72.173C90.1194 72.0538 90.0515 71.9483 89.9677 71.8636C89.4318 72.1479 88.9777 72.619 88.6631 73.217C88.3485 73.815 88.1877 74.513 88.201 75.2221C87.6605 74.8114 87.2083 74.2507 86.8818 73.5862C86.5554 72.9217 86.364 72.1725 86.3235 71.4006C86.2891 72.2625 86.445 73.12 86.775 73.8845C87.1051 74.649 87.5973 75.293 88.201 75.7499C88.1882 75.0409 88.3493 74.3432 88.6638 73.7453C88.9783 73.1474 89.4321 72.6762 89.9677 72.3913C90.0514 72.4768 90.1191 72.5827 90.1666 72.7022C90.214 72.8217 90.2399 72.9521 90.2427 73.0846L90.8244 71.8276C90.9107 71.5976 91.0476 71.4008 91.2201 71.259C91.5801 71.0191 92.0292 71.3022 92.3359 71.6405C92.6425 71.9787 92.9413 72.3985 93.3528 72.4537C93.3528 71.8396 93.3581 71.227 93.3686 70.6161C93.4657 69.9752 93.6675 69.3642 93.9621 68.8193Z" fill="black"/>
<path d="M93.2935 71.2351C93.3035 71.0719 93.3195 70.9088 93.3396 70.7553L93.3616 70.0931C93.3014 70.4692 93.2785 70.8525 93.2935 71.2351Z" fill="black"/>
<path d="M99.296 74.097C98.7559 74.4473 98.0674 74.1546 97.6084 73.6652C97.1494 73.1758 96.8388 72.5161 96.4332 71.9595C96.4032 72.0602 96.3991 72.1696 96.4213 72.2732C96.4436 72.3769 96.4912 72.4699 96.5579 72.5401C96.5183 72.5401 96.4807 72.5161 96.4431 72.5041C96.8388 73.0559 97.1534 73.7036 97.6084 74.1834C98.0634 74.6632 98.7559 74.9654 99.296 74.6152C99.8361 74.2649 99.9904 73.4445 99.9429 72.6456C99.9073 73.2742 99.7213 73.8187 99.296 74.097Z" fill="black"/>
<path d="M96.4311 72.4993C95.7695 72.2807 95.1788 71.822 94.7382 71.1849C94.2976 70.5477 94.0282 69.7625 93.966 68.9344C93.8532 70.8176 95.0244 72.7056 96.5577 73.0679C96.4924 72.9991 96.4455 72.9083 96.4229 72.807C96.4004 72.7057 96.4032 72.5986 96.4311 72.4993Z" fill="black"/>
</g>
<path d="M191.442 111.708C191.442 111.708 190.662 111.576 190.662 110.202C190.662 108.827 190.105 106.253 190.105 106.253C190.105 106.253 189.622 101.774 188.955 101.064C188.288 100.354 187.432 96.1843 187.432 96.1843C187.432 96.1843 187.285 93.9221 186.987 93.4351C186.688 92.9481 186.284 91.7558 185.689 90.055C185.093 88.3541 182.616 87.1882 182.616 87.1882C182.616 87.1882 178.127 84.0311 176.855 83.002C176.739 82.9167 176.63 82.817 176.531 82.7045C176.309 82.3543 175.344 82.3471 175.344 82.3471C175.243 81.5722 175.146 80.6846 175.114 79.8809C175.114 79.7946 175.114 79.7082 175.114 79.6218C176.533 78.6051 177.601 77.002 178.123 75.107C178.147 75.0158 178.167 74.9223 178.189 74.8287C178.275 74.7962 178.356 74.7418 178.424 74.669C178.492 74.5962 178.547 74.5068 178.584 74.4065C178.697 74.097 178.701 73.7372 178.844 73.4469C179.01 73.1062 179.326 72.9239 179.576 72.6696C180.205 72.0195 180.367 70.928 180.337 69.9372C180.317 69.1311 180.211 68.3203 180.252 67.5214C180.252 67.4543 180.252 67.3871 180.264 67.3199C180.276 67.2024 180.29 67.08 180.308 66.9649C180.404 66.3699 180.616 65.8086 180.735 65.2184C180.854 64.6283 180.865 63.9638 180.588 63.4552C180.183 62.7091 179.338 62.5604 178.596 62.4956C177.755 62.4092 177.013 62.5196 176.465 61.6727C176.214 61.2304 175.931 60.8162 175.619 60.4349C175.508 60.3101 174.432 59.5113 174.432 59.4609C173.379 58.8672 172.184 58.7556 171.068 59.1466C170.509 59.3433 169.984 59.6648 169.416 59.8255C168.198 60.1758 166.793 59.7967 165.756 60.6436C165.179 61.1234 164.832 61.8886 164.508 62.6299C164.244 63.2409 163.976 63.8526 163.705 64.4651C163.266 65.4703 162.822 66.4923 162.638 67.6054C162.6 67.8485 162.575 68.0946 162.565 68.3419C162.565 68.4306 162.565 68.5194 162.565 68.6082C162.565 68.6465 162.565 68.6849 162.565 68.7233C162.565 68.8049 162.565 68.8864 162.577 68.9632C162.589 69.04 162.577 69.0616 162.591 69.1119C162.605 69.1623 162.609 69.2751 162.621 69.3518C162.632 69.4286 162.656 69.5654 162.68 69.6685C162.68 69.7141 162.704 69.7573 162.716 69.8028C162.727 69.8484 162.759 69.9636 162.785 70.0427C162.811 70.1219 162.813 70.1267 162.828 70.1675C162.858 70.2515 162.894 70.333 162.929 70.4074C162.945 70.4386 162.957 70.4698 162.973 70.5009C163.027 70.6132 163.088 70.7207 163.155 70.8224C163.576 71.4629 164.201 71.8708 164.662 72.4705C164.662 72.4945 164.662 72.5185 164.662 72.5425C164.662 72.6072 164.662 72.672 164.662 72.7392C164.691 74.0769 164.988 75.3859 165.529 76.5524C166.069 77.719 166.837 78.7076 167.764 79.4323C167.764 79.5235 167.774 79.617 167.778 79.7106C167.817 80.4219 167.81 81.1358 167.757 81.8457C167.676 81.7309 167.575 81.6394 167.461 81.578C167.348 81.5166 167.224 81.4867 167.1 81.4906C167.015 81.4855 166.93 81.4944 166.846 81.517L166.829 81.5002V81.5218C166.393 81.6514 165.857 82.2007 165.345 83.7625C165.345 83.7625 163.786 85.8927 162.599 85.804C161.412 85.7152 158.407 88.023 158.407 88.023C158.407 88.023 155.475 90.3284 154.846 92.6794C154.494 94.0129 154.072 95.3174 153.581 96.585L149.947 105.634L149.28 112.831C149.28 112.831 149.65 116.024 149.577 116.513C149.504 117.003 151.098 121.393 151.098 121.393C151.098 121.393 156.367 132.615 158.519 133.191L158.674 133.061C158.766 133.118 158.864 133.161 158.965 133.191L159.408 132.814C159.435 133.236 159.423 133.66 159.372 134.078C159.077 135.189 159.485 142.42 160.003 143.837C160.522 145.255 160.338 163.847 160.338 163.847L160.264 165.486C160.264 165.486 160.264 165.539 160.282 165.63L160.264 166.018L160.318 166.052C160.373 166.573 160.355 167.102 160.264 167.616C160.078 168.336 160.003 170.368 160.003 170.368C160.003 170.368 158.519 181.854 159.224 184.162C159.928 186.47 160.524 188.998 160.524 188.998C160.524 188.998 161.265 191.877 160.559 192.357C159.853 192.836 157.853 193.688 158.26 194.885C158.636 195.994 160.063 198.963 160.274 199.398L160.256 199.638L159.966 203.459C160.013 203.964 160.126 204.456 160.3 204.918C160.618 205.753 161.236 206.614 162.415 206.52C162.613 206.503 162.84 206.477 163.064 206.441C165.218 206.088 167.869 204.922 167.869 204.922C167.732 204.817 167.606 204.69 167.495 204.546C167.39 204.421 167.306 204.272 167.249 204.107C167.192 203.942 167.163 203.765 167.165 203.586C167.197 202.888 166.122 199.575 165.853 198.757L165.792 198.575C165.792 198.575 168.241 195.468 167.834 192.719C167.834 192.719 165.123 190.8 166.016 189.744C166.908 188.689 168.502 185.666 168.502 185.666C168.502 185.666 168.576 174.355 168.502 172.668C168.426 171.495 168.472 170.315 168.639 169.156C168.669 168.983 168.704 168.813 168.742 168.643C169.977 168.869 171.224 168.984 172.473 168.986C172.929 168.986 173.391 168.975 173.858 168.952C173.858 169.112 173.864 169.285 173.876 169.47C173.979 172.272 174.171 177.188 174.327 179.014C174.548 181.628 175.773 188.684 175.773 188.684C175.773 188.684 173.437 190.5 176.181 194.984C176.181 194.984 176.181 196.605 175.999 196.843C175.804 197.612 175.648 198.395 175.53 199.187C175.415 200.029 175.367 200.885 175.553 201.326C175.999 202.387 178.669 202.3 178.669 202.3C178.691 202.294 178.713 202.29 178.735 202.288C179.239 202.224 179.749 202.282 180.234 202.459C180.719 202.636 181.171 202.929 181.562 203.32C182.577 204.308 186.427 203.877 188.514 203.56C189.331 203.433 189.877 203.32 189.877 203.32C189.903 203.208 189.913 203.091 189.905 202.975C189.883 202.353 189.481 200.991 186.759 199.774C186.759 199.774 184.199 197.687 184.235 195.869H184.177H183.882C184.068 195.862 184.199 195.862 184.199 195.862C184.199 195.862 183.196 191.426 183.606 191.064C184.015 190.701 182.788 185.786 182.788 185.786C182.788 185.786 182.086 177.533 182.047 176.958C182.049 176.461 182.112 175.968 182.233 175.494L182.047 170.967C182.047 170.967 182.011 169.463 182.047 168.974C182.043 168.549 182.015 168.125 181.963 167.705C181.946 167.537 181.928 167.362 181.908 167.189C182.868 166.894 183.491 166.623 183.491 166.623L183.38 150.874C184.195 148.954 184.345 144.742 184.341 141.758C184.341 139.838 184.27 138.418 184.27 138.418L185.384 136.214C185.384 136.214 185.641 133.575 185.234 132.997C185.054 132.735 185.135 132.464 185.283 132.241C185.361 132.163 185.444 132.093 185.53 132.03C185.521 132.013 185.512 131.995 185.505 131.977C185.583 131.898 185.665 131.827 185.752 131.763C185.752 131.763 185.356 131.02 185.711 130.706C186.043 130.979 186.34 131.197 186.565 131.353C186.549 131.528 186.534 131.629 186.534 131.629L186.629 131.389C186.846 131.538 186.979 131.629 186.979 131.629C186.979 131.629 188.724 127.414 188.686 126.795C188.648 126.176 189.873 123.557 189.873 123.557C189.873 123.557 190.021 122.18 190.69 121.604C191.359 121.028 191.208 116.856 191.208 116.856C191.208 116.856 191.394 114.683 191.84 113.798C192.285 112.912 191.442 111.708 191.442 111.708ZM158.054 109.858L158.088 110.864C157.89 110.477 157.748 110.202 157.748 110.202L158.054 109.858Z" fill="url(#paint1_linear_308_244)"/>
<path d="M187.081 129.806L186.654 132.013C186.654 132.013 183.232 129.89 182.616 127.203C182.001 124.516 183.647 123.492 183.647 123.492L186.838 125.128L187.081 129.806Z" fill="white"/>
<path opacity="0.1" d="M187.081 129.806L186.654 132.013C186.654 132.013 183.232 129.89 182.616 127.203C182.001 124.516 183.647 123.492 183.647 123.492L186.838 125.128L187.081 129.806Z" fill="black"/>
<path d="M167.873 204.92C167.873 204.92 164.708 206.331 162.531 206.508C161.376 206.602 160.769 205.743 160.456 204.915C160.286 204.459 160.175 203.973 160.128 203.476L160.415 199.674L160.565 197.651L165.188 196.193L165.843 198.623L165.905 198.805C166.166 199.618 167.222 202.915 167.191 203.603C167.188 203.781 167.215 203.958 167.271 204.123C167.326 204.288 167.409 204.437 167.513 204.563C167.62 204.7 167.741 204.82 167.873 204.92Z" fill="white"/>
<path d="M189.485 202.987C189.494 203.103 189.484 203.22 189.458 203.332C189.458 203.332 182.688 204.699 181.303 203.332C180.913 202.933 180.46 202.636 179.97 202.461C179.481 202.286 178.967 202.237 178.462 202.317C178.462 202.317 175.842 202.404 175.405 201.358C175.223 200.919 175.271 200.067 175.383 199.23C175.499 198.442 175.652 197.664 175.842 196.898L175.947 196.797L176.57 196.19L183.867 195.929H183.922C183.886 197.738 186.397 199.813 186.397 199.813C189.07 201.012 189.464 202.368 189.485 202.987Z" fill="white"/>
<path opacity="0.1" d="M189.487 202.987C189.494 203.103 189.484 203.22 189.458 203.332C189.458 203.332 182.688 204.699 181.305 203.332C180.915 202.932 180.461 202.635 179.972 202.461C179.482 202.286 178.968 202.237 178.462 202.317C178.462 202.317 175.84 202.404 175.403 201.358C175.223 200.919 175.269 200.067 175.381 199.227C176.39 199.35 177.983 199.654 178.608 200.384C179.554 201.487 181.156 202.591 182.138 202.679C182.913 202.737 187.525 202.915 189.487 202.987Z" fill="black"/>
<path opacity="0.1" d="M167.873 204.92C167.873 204.92 164.708 206.331 162.531 206.508C161.376 206.602 160.769 205.743 160.456 204.915C161.263 205.244 162.381 205.587 162.969 205.273C163.665 204.896 166.134 204.656 167.519 204.553C167.623 204.693 167.742 204.817 167.873 204.92Z" fill="black"/>
<path d="M172.57 91.2352C169.958 90.0046 166.599 85.9383 167.438 84.0383C167.623 83.5585 167.734 83.0412 167.764 82.5126C167.818 81.7947 167.826 81.0729 167.788 80.3535C167.729 79.1746 167.612 78.001 167.438 76.839C167.438 76.839 175.591 77.0621 175.116 78.5183C174.978 78.9477 174.954 79.689 174.994 80.5166C175.033 81.3443 175.13 82.2871 175.233 83.0811C175.373 84.1679 175.518 85.0003 175.518 85.0003C175.518 85.0003 175.017 85.8472 174.726 85.8927C174.436 85.9383 176.317 92.9985 172.57 91.2352Z" fill="#FBBEBE"/>
<path opacity="0.1" d="M165.897 198.793L165.835 198.875C163.398 195.3 160.45 199.757 160.45 199.757L160.407 199.662L160.557 197.639L165.181 196.181L165.835 198.611L165.897 198.793Z" fill="black"/>
<path opacity="0.1" d="M183.926 196.181C183.926 196.181 182.145 196.137 181.196 197.155C180.246 198.172 175.656 197.373 175.854 197.155C175.912 197.044 175.947 196.918 175.957 196.788L176.58 196.181L183.877 195.919C183.904 196.087 183.926 196.181 183.926 196.181Z" fill="black"/>
<path d="M168.93 168.11C168.797 168.508 168.697 168.92 168.629 169.341C168.464 170.494 168.418 171.667 168.493 172.834C168.566 174.513 168.493 185.767 168.493 185.767C168.493 185.767 166.928 188.768 166.053 189.826C165.179 190.884 167.834 192.784 167.834 192.784C168.229 195.521 165.832 198.611 165.832 198.611C163.394 195.036 160.446 199.491 160.446 199.491C160.446 199.491 158.844 196.133 158.444 194.933C158.045 193.734 160.009 192.906 160.7 192.417C161.39 191.927 160.664 189.058 160.664 189.058C160.664 189.058 160.082 186.542 159.39 184.246C158.697 181.95 160.154 170.524 160.154 170.524C160.154 170.524 160.229 168.492 160.409 167.784C160.499 167.273 160.517 166.748 160.462 166.229C160.45 166.054 160.436 165.91 160.427 165.81C160.417 165.709 160.409 165.666 160.409 165.666L160.436 165.608L161.426 163.372C161.426 163.372 169.405 166.702 168.93 168.11Z" fill="#AADBFF"/>
<path d="M183.926 195.917C183.926 195.917 182.145 195.871 181.196 196.876C180.246 197.882 175.656 197.097 175.854 196.876C176.052 196.656 176.034 195.024 176.034 195.024C173.341 190.565 175.638 188.756 175.638 188.756C175.638 188.756 174.438 181.739 174.22 179.136C174.068 177.32 173.88 172.419 173.779 169.643C173.735 168.444 173.709 167.616 173.709 167.616L175.89 167.091L176.173 167.024L181.479 165.731C181.479 165.731 181.625 166.93 181.724 167.911C181.774 168.33 181.801 168.752 181.805 169.175C181.771 169.655 181.805 171.159 181.805 171.159L181.987 175.66C181.87 176.132 181.808 176.623 181.805 177.116C181.843 177.692 182.533 185.899 182.533 185.899C182.533 185.899 183.734 190.797 183.325 191.15C182.915 191.503 183.926 195.917 183.926 195.917Z" fill="#AADBFF"/>
<path opacity="0.1" d="M175.116 78.5255C174.978 78.9549 174.954 79.6962 174.993 80.5239C173.901 81.3213 172.646 81.729 171.371 81.7001C170.097 81.6713 168.855 81.207 167.788 80.3607C167.729 79.1818 167.612 78.0082 167.438 76.8462C167.438 76.8462 175.591 77.0693 175.116 78.5255Z" fill="black"/>
<path d="M178.264 73.2286C178.285 75.4052 177.593 77.503 176.339 79.0605C175.085 80.6181 173.372 81.5077 171.577 81.5338C169.782 81.5599 168.052 80.7203 166.767 79.1996C165.483 77.679 164.749 75.6019 164.728 73.4253C164.728 73.3581 164.728 73.2958 164.728 73.2286C164.728 71.0514 165.441 68.9633 166.71 67.4238C167.98 65.8842 169.702 65.0193 171.498 65.0193C173.293 65.0193 175.015 65.8842 176.285 67.4238C177.554 68.9633 178.268 71.0514 178.268 73.2286H178.264Z" fill="#FBBEBE"/>
<path opacity="0.1" d="M172.57 91.2353C169.958 90.0046 166.599 85.9383 167.438 84.0383C167.623 83.5585 167.734 83.0412 167.764 82.5126L171.339 86.0775L173.551 88.2773L175.233 83.0884C175.373 84.1751 175.518 85.0075 175.518 85.0075C175.518 85.0075 175.017 85.8544 174.726 85.8999C174.436 85.9455 176.317 92.9985 172.57 91.2353Z" fill="black"/>
<path d="M181.815 106.989L178.829 167.803L174.936 168.113L164.852 132.85L166.506 90.9858L166.856 82.1408L171.339 86.6053L173.551 88.8051L175.282 83.4626L178.501 86.8643L181.815 106.989Z" fill="#AADBFF"/>
<path opacity="0.1" d="M168.93 168.11C168.797 168.508 168.697 168.92 168.629 169.341C165.793 168.811 163.039 167.769 160.458 166.249L160.405 166.215L160.423 165.829V165.627L161.412 163.391C161.412 163.391 169.405 166.702 168.93 168.11Z" fill="black"/>
<path opacity="0.1" d="M175.955 169.351C175.231 169.501 174.5 169.602 173.767 169.655C173.723 168.456 173.698 167.628 173.698 167.628L175.89 167.091L175.955 169.351Z" fill="black"/>
<path opacity="0.1" d="M181.732 167.911C180.325 168.355 178.151 168.854 176.208 168.542L176.18 167.024L181.486 165.731C181.486 165.731 181.627 166.92 181.732 167.911Z" fill="black"/>
<path opacity="0.1" d="M176.173 168.82C168.061 170.5 160.632 165.685 160.632 165.685L160.703 164.054C160.703 164.054 160.887 145.56 160.377 144.142C159.867 142.724 159.469 135.544 159.758 134.448C160.047 133.352 158.703 116.799 158.703 116.799L158.486 110.082L150.515 106.154L154.076 97.1511C154.557 95.8891 154.97 94.591 155.314 93.2648C155.933 90.9258 158.808 88.63 158.808 88.63C158.808 88.63 161.756 86.3366 162.921 86.4229C164.086 86.5093 165.614 84.3934 165.614 84.3934C166.741 80.9077 167.762 82.4742 167.762 82.4742C167.762 82.6421 167.762 82.4742 167.707 82.99C167.311 86.8163 174.105 98.9072 174.202 99.1231L174.857 118.233L175.512 142.417L176.173 168.82Z" fill="black"/>
<path d="M175.955 168.82C167.844 170.5 160.413 165.685 160.413 165.685L160.486 164.054C160.486 164.054 160.668 145.56 160.158 144.142C159.647 142.724 159.249 135.537 159.54 134.431C159.831 133.325 158.48 116.789 158.48 116.789L158.26 110.072L150.291 106.145L153.852 97.1415C154.332 95.8797 154.746 94.5825 155.091 93.2576C155.71 90.9258 158.595 88.6276 158.595 88.6276C158.595 88.6276 161.542 86.3342 162.706 86.4205C163.869 86.5069 165.404 84.3934 165.404 84.3934C166.534 80.9077 167.778 82.4742 167.778 82.4742C167.778 82.6421 167.66 82.7141 167.723 82.99C168.593 86.7012 173.903 98.9072 174 99.1231L174.655 118.233L175.296 142.429L175.955 168.82Z" fill="white"/>
<path opacity="0.1" d="M173.769 99.6628C172.896 99.2214 168.275 92.8234 168.275 92.8234V91.3672C168.107 90.8874 167.106 91.1801 166.296 91.5159L166.645 82.6709L167.04 83.0692C167.905 86.778 173.674 99.4493 173.769 99.6628Z" fill="black"/>
<path d="M173.989 99.1351C173.114 98.6913 168.493 92.2956 168.493 92.2956V90.837C168.324 90.3572 167.325 90.6499 166.514 90.9858L166.856 82.1504L167.252 82.5462C168.125 86.2502 173.892 98.9192 173.989 99.1351Z" fill="white"/>
<path opacity="0.1" d="M160.632 131.041C160.741 131.041 166.273 130.336 166.273 130.336C166.273 130.336 169.622 138.325 169.402 140.265C169.183 142.206 168.785 143.929 167.438 143.624C166.091 143.319 160.187 143.864 160.187 143.864L160.632 131.041Z" fill="black"/>
<path d="M160.413 130.511C160.523 130.511 166.055 129.806 166.055 129.806C166.055 129.806 169.403 137.807 169.185 139.726C168.967 141.645 168.566 143.389 167.22 143.084C165.875 142.78 159.968 143.324 159.968 143.324L160.413 130.511Z" fill="white"/>
<path d="M164.581 126.771C164.581 126.771 169.658 130.082 169.767 131.089C169.875 132.097 167.183 130.648 166.601 130.47C166.218 130.36 165.828 130.286 165.436 130.25L161.556 130.377L164.581 126.771Z" fill="#FBBEBE"/>
<path opacity="0.1" d="M172.35 100.075C172.645 100.075 172.884 99.7855 172.884 99.4277C172.884 99.07 172.645 98.78 172.35 98.78C172.055 98.78 171.816 99.07 171.816 99.4277C171.816 99.7855 172.055 100.075 172.35 100.075Z" fill="black"/>
<path d="M172.35 99.8116C172.645 99.8116 172.884 99.5216 172.884 99.1639C172.884 98.8061 172.645 98.5161 172.35 98.5161C172.055 98.5161 171.816 98.8061 171.816 99.1639C171.816 99.5216 172.055 99.8116 172.35 99.8116Z" fill="#3F3D56"/>
<path opacity="0.1" d="M173.333 128.115C173.628 128.115 173.868 127.825 173.868 127.467C173.868 127.109 173.628 126.819 173.333 126.819C173.038 126.819 172.799 127.109 172.799 127.467C172.799 127.825 173.038 128.115 173.333 128.115Z" fill="black"/>
<path d="M173.333 127.848C173.628 127.848 173.868 127.558 173.868 127.201C173.868 126.843 173.628 126.553 173.333 126.553C173.038 126.553 172.799 126.843 172.799 127.201C172.799 127.558 173.038 127.848 173.333 127.848Z" fill="#3F3D56"/>
<path opacity="0.1" d="M172.885 114.095C173.18 114.095 173.419 113.805 173.419 113.447C173.419 113.09 173.18 112.8 172.885 112.8C172.589 112.8 172.35 113.09 172.35 113.447C172.35 113.805 172.589 114.095 172.885 114.095Z" fill="black"/>
<path d="M172.885 113.831C173.18 113.831 173.419 113.541 173.419 113.183C173.419 112.826 173.18 112.536 172.885 112.536C172.589 112.536 172.35 112.826 172.35 113.183C172.35 113.541 172.589 113.831 172.885 113.831Z" fill="#3F3D56"/>
<path d="M185.198 130.115C185.198 130.115 185.562 130.777 185.198 131.075C184.834 131.372 185.234 132.135 185.234 132.135C185.234 132.135 184.325 132.778 184.725 133.361C185.125 133.944 184.872 136.561 184.872 136.561L183.779 138.766C183.779 138.766 183.845 140.179 183.849 142.089C183.849 145.068 183.704 149.257 182.905 151.166L183.012 166.834C183.012 166.834 179.188 168.53 175.987 168.012L175.512 142.871C175.512 142.871 176.204 128.614 176.459 125.879C176.609 124.459 176.67 123.028 176.641 121.597C176.641 121.597 176.533 117.317 176.167 115.333C176.167 115.333 175.771 106.725 175.731 104.343C175.713 103.204 175.763 99.8788 175.818 96.7169C175.88 93.26 175.949 89.9998 175.949 89.9998L175.227 83.0692C175.227 83.0692 175.949 82.9828 176.167 83.333C176.264 83.4435 176.37 83.5423 176.483 83.6281C177.731 84.6501 182.135 87.7927 182.135 87.7927C182.135 87.7927 184.573 88.9682 185.156 90.6523C185.74 92.3364 186.146 93.5311 186.429 94.0109C186.711 94.4907 186.866 96.7457 186.866 96.7457C186.866 96.7457 187.705 100.896 188.359 101.599C189.014 102.302 189.485 106.764 189.485 106.764L183.698 112.281C183.698 112.281 183.19 121.46 183.081 121.815C182.972 122.17 185.198 130.115 185.198 130.115Z" fill="white"/>
<path d="M185.418 130.115C185.418 130.115 185.78 130.778 185.418 131.075C185.056 131.372 185.451 132.135 185.451 132.135C185.451 132.135 184.543 132.778 184.943 133.361C185.342 133.944 185.089 136.561 185.089 136.561L184.001 138.766C184.001 138.766 184.066 140.179 184.072 142.089C184.072 145.068 183.928 149.257 183.129 151.166L183.237 166.834C183.237 166.834 179.413 168.53 176.212 168.012L175.739 142.871C175.739 142.871 176.43 128.614 176.687 125.879C176.836 124.459 176.897 123.028 176.867 121.597C176.867 121.597 176.758 117.317 176.394 115.333C176.394 115.333 175.998 106.725 175.957 104.343C175.939 103.204 175.989 99.8788 176.044 96.7169C176.105 93.26 176.175 89.9998 176.175 89.9998L175.221 82.9756C175.221 82.9756 176.175 82.9756 176.394 83.3331C176.491 83.4448 176.597 83.5437 176.711 83.6281C177.957 84.6501 182.361 87.7927 182.361 87.7927C182.361 87.7927 184.792 88.9682 185.386 90.6523C185.979 92.3364 186.375 93.5311 186.658 94.0109C186.941 94.4907 187.095 96.7457 187.095 96.7457C187.095 96.7457 187.934 100.896 188.589 101.599C189.244 102.302 189.717 106.764 189.717 106.764L183.93 112.281C183.93 112.281 183.421 121.46 183.311 121.815C183.2 122.17 185.418 130.115 185.418 130.115Z" fill="white"/>
<path opacity="0.1" d="M178.487 92.0365L179.011 93.8837L176.26 97.2423C176.321 93.7854 176.39 90.5252 176.39 90.5252L175.437 83.5034C175.437 83.5034 176.39 83.5034 176.61 83.8608C176.706 83.9726 176.812 84.0715 176.926 84.1559L179.265 92.334L178.487 92.0365Z" fill="black"/>
<path d="M178.264 91.5064L178.788 93.3512L176.038 96.7097C176.097 93.2528 176.169 89.9926 176.169 89.9926L175.213 82.9684C175.213 82.9684 176.169 82.9684 176.386 83.3259C176.483 83.4369 176.589 83.5358 176.703 83.6209L179.055 91.8062L178.264 91.5064Z" fill="white"/>
<path opacity="0.1" d="M178.264 73.2286C178.265 74.093 178.152 74.9521 177.931 75.7739C177.894 75.7815 177.856 75.7798 177.819 75.7691C177.783 75.7584 177.748 75.7388 177.718 75.7115C177.664 73.5525 176.79 71.5229 175.712 69.7981C175.408 69.2778 175.041 68.8167 174.623 68.4307C174.2 68.0456 173.674 67.8652 173.148 67.9245C172.554 68.0228 172.03 68.5122 171.43 68.5746C170.639 68.6538 169.931 67.9892 169.145 67.9581C168.826 67.9613 168.511 68.0473 168.221 68.2103C167.931 68.3733 167.674 68.6096 167.466 68.9033C167.053 69.4939 166.746 70.1828 166.565 70.9256C166.254 72.0527 166.085 73.2302 166.063 74.4185C166.053 75.0902 166 75.9322 165.485 76.1769C165.524 75.6833 165.478 75.1852 165.35 74.7144C165.221 74.2436 165.013 73.8103 164.739 73.4421L164.728 73.4253C164.728 73.3581 164.728 73.2958 164.728 73.2286C164.728 71.0514 165.441 68.9633 166.71 67.4238C167.98 65.8842 169.702 65.0193 171.498 65.0193C173.293 65.0193 175.015 65.8842 176.285 67.4238C177.554 68.9633 178.268 71.0514 178.268 73.2286H178.264Z" fill="black"/>
<path d="M174.307 60.195C173.279 59.6086 172.11 59.4977 171.019 59.8831C170.471 60.0798 169.954 60.3989 169.399 60.5596C168.211 60.9075 166.827 60.5308 165.808 61.3729C165.242 61.8527 164.902 62.6107 164.585 63.3496L163.794 65.1752C163.362 66.1756 162.927 67.1928 162.747 68.2939C162.567 69.395 162.676 70.6281 163.252 71.5157C163.669 72.1586 164.29 72.5641 164.745 73.171C165.019 73.541 165.226 73.9757 165.354 74.4476C165.482 74.9195 165.528 75.4185 165.489 75.913C166.004 75.6731 166.055 74.8263 166.067 74.1546C166.089 72.9663 166.259 71.7889 166.569 70.6617C166.75 69.9189 167.057 69.23 167.47 68.6393C167.678 68.3454 167.935 68.1087 168.225 67.9453C168.515 67.7819 168.83 67.6954 169.149 67.6918C169.941 67.7253 170.651 68.3898 171.434 68.3083C172.028 68.2483 172.554 67.7589 173.152 67.6606C173.678 67.6001 174.205 67.7807 174.627 68.1667C175.046 68.5516 175.412 69.0129 175.714 69.5342C176.794 71.2614 177.67 73.2814 177.722 75.4476C177.945 75.6443 178.268 75.3852 178.378 75.0782C178.489 74.7711 178.493 74.4113 178.634 74.1186C178.796 73.7803 179.107 73.598 179.35 73.3437C179.967 72.6984 180.121 71.6117 180.098 70.6257C180.074 69.6397 179.916 68.6393 180.07 67.6702C180.163 67.0776 180.373 66.5187 180.487 65.9309C180.602 65.3432 180.616 64.6834 180.345 64.1773C179.949 63.436 179.116 63.2872 178.39 63.2177C177.565 63.1313 176.827 63.2417 176.301 62.3996C176.054 61.9608 175.776 61.5483 175.47 61.1665C175.361 61.0394 174.307 60.2477 174.307 60.195Z" fill="#512E4E"/>
<path opacity="0.1" d="M152.798 110.784L150.732 106.152L150.077 113.301C150.077 113.301 150.441 116.477 150.368 116.964C150.295 117.451 151.86 121.817 151.86 121.817C151.86 121.817 157.029 132.985 159.14 133.558L166.263 127.378L164.371 124.466C164.371 124.466 163.716 124.156 163.552 124.466C163.552 124.466 160.039 117.139 159.677 116.612C159.315 116.084 159.384 115.021 159.384 115.021C159.384 115.021 158.838 114.316 159.02 113.654C159.202 112.992 157.975 110.698 157.975 110.698L159.103 109.419L152.798 110.784Z" fill="black"/>
<path d="M150.841 105.622L150.295 106.152L149.64 113.301C149.64 113.301 150.004 116.477 149.931 116.964C149.858 117.451 151.425 121.817 151.425 121.817C151.425 121.817 156.592 132.985 158.703 133.558L165.837 127.378L163.944 124.466C163.944 124.466 163.289 124.156 163.125 124.466C163.125 124.466 159.613 117.139 159.249 116.612C158.885 116.084 158.958 115.021 158.958 115.021C158.958 115.021 158.412 114.316 158.594 113.654C158.776 112.992 157.538 110.698 157.538 110.698L158.666 109.419L150.841 105.622Z" fill="white"/>
<path opacity="0.1" d="M184.725 133.637C185.121 134.22 184.872 136.84 184.872 136.84L183.779 139.03C183.779 139.03 183.845 140.445 183.849 142.355L182.013 143.051C181.847 143.113 181.67 143.127 181.499 143.091C181.327 143.054 181.166 142.969 181.027 142.841C180.889 142.713 180.777 142.547 180.702 142.357C180.627 142.166 180.591 141.957 180.596 141.746L180.915 129.367L185.198 131.351C184.834 131.658 185.234 132.411 185.234 132.411C185.234 132.411 184.326 133.054 184.725 133.637Z" fill="black"/>
<path d="M184.943 133.373C185.339 133.954 185.089 136.573 185.089 136.573L184.001 138.766C184.001 138.766 184.066 140.179 184.072 142.089L182.203 142.796C182.04 142.858 181.868 142.872 181.701 142.836C181.533 142.801 181.375 142.717 181.239 142.593C181.104 142.468 180.995 142.306 180.921 142.12C180.848 141.933 180.813 141.729 180.818 141.522L181.136 129.101L185.418 131.089C185.052 131.396 185.451 132.15 185.451 132.15C185.451 132.15 184.543 132.79 184.943 133.373Z" fill="white"/>
<path d="M186.363 127.467C186.363 127.467 186.073 129.72 185.345 129.852C184.616 129.983 184.29 133.496 183.564 133.373C182.838 133.251 183.319 130.106 183.344 129.496C183.37 128.887 182.553 126.363 183.162 125.79C183.772 125.217 185.711 125.79 185.711 125.79L186.363 127.467Z" fill="#FBBEBE"/>
<path opacity="0.1" d="M187.903 110.122L189.274 106.764C189.274 106.764 189.822 109.323 189.822 110.691C189.822 112.058 190.585 112.193 190.585 112.193C190.585 112.193 191.422 113.392 190.981 114.268C190.54 115.143 190.364 117.312 190.364 117.312C190.364 117.312 190.508 121.46 189.853 122.033C189.198 122.607 189.052 123.976 189.052 123.976C189.052 123.976 187.851 126.579 187.889 127.198C187.926 127.817 186.215 132.008 186.215 132.008C186.215 132.008 187.052 126.8 182.175 124.55C182.175 124.55 182.138 122.784 182.502 122.3C182.866 121.815 183.433 121.58 183.077 119.142C182.721 116.705 182.974 113.766 182.974 113.179C182.974 112.591 184.067 108.928 184.067 108.928L187.903 110.122Z" fill="black"/>
<path d="M188.512 106.284L189.711 106.764C189.711 106.764 190.259 109.323 190.259 110.691C190.259 112.058 191.022 112.193 191.022 112.193C191.022 112.193 191.859 113.392 191.418 114.268C190.977 115.143 190.799 117.312 190.799 117.312C190.799 117.312 190.945 121.46 190.29 122.033C189.635 122.607 189.499 123.976 189.499 123.976C189.499 123.976 188.298 126.579 188.336 127.198C188.373 127.817 186.66 132.008 186.66 132.008C186.66 132.008 187.497 126.8 182.62 124.55C182.62 124.55 182.584 122.784 182.949 122.3C183.313 121.815 183.88 121.58 183.524 119.142C183.168 116.705 183.421 113.766 183.421 113.179C183.421 112.591 184.513 108.928 184.513 108.928L188.512 106.284Z" fill="white"/>
<path opacity="0.1" d="M162.025 193.335C162.025 193.335 163.936 191.879 165.191 192.937C166.445 193.995 162.025 193.335 162.025 193.335Z" fill="black"/>
<path opacity="0.1" d="M176.879 188.833C176.879 188.833 178.57 188.569 179.991 190.423C181.411 192.278 176.879 188.833 176.879 188.833Z" fill="black"/>
<g opacity="0.1">
<path d="M179.35 72.816C179.107 73.0726 178.794 73.2526 178.632 73.5908C178.493 73.8811 178.489 74.2409 178.378 74.5504C178.268 74.8599 177.945 75.1166 177.72 74.9198C177.668 72.7608 176.792 70.7336 175.714 69.0064C175.412 68.4858 175.046 68.0253 174.627 67.6414C174.204 67.2545 173.677 67.0731 173.15 67.1328C172.556 67.2311 172.034 67.7205 171.434 67.7829C170.643 67.8621 169.933 67.1976 169.147 67.1664C168.828 67.1693 168.513 67.2552 168.224 67.4183C167.934 67.5813 167.677 67.8177 167.47 68.1116C167.057 68.7022 166.75 69.3911 166.569 70.1339C166.259 71.2611 166.089 72.4385 166.067 73.6268C166.055 74.2961 166.004 75.131 165.493 75.3805C165.505 75.5585 165.505 75.7374 165.493 75.9154C166.01 75.6755 166.061 74.8287 166.073 74.157C166.095 72.9687 166.264 71.7913 166.575 70.6641C166.756 69.9213 167.063 69.2324 167.476 68.6417C167.683 68.3479 167.941 68.1114 168.23 67.948C168.519 67.7845 168.834 67.698 169.153 67.6941C169.945 67.7277 170.657 68.3922 171.44 68.3107C172.034 68.2507 172.56 67.7613 173.156 67.663C173.683 67.6026 174.21 67.7831 174.633 68.1691C175.052 68.554 175.418 69.0153 175.72 69.5366C176.798 71.2638 177.674 73.2838 177.726 75.45C177.951 75.6467 178.274 75.3876 178.384 75.0806C178.495 74.7735 178.499 74.4137 178.638 74.121C178.8 73.7827 179.112 73.6004 179.356 73.3461C179.973 72.7008 180.127 71.6141 180.104 70.6281C180.104 70.5969 180.104 70.5681 180.104 70.5369C180.064 71.3958 179.876 72.2666 179.35 72.816Z" fill="black"/>
<path d="M164.743 72.648C164.29 72.0411 163.669 71.6333 163.252 70.9903C162.899 70.4228 162.698 69.738 162.676 69.028C162.614 69.9158 162.818 70.801 163.252 71.5205C163.669 72.1634 164.29 72.5689 164.743 73.1758C165.181 73.7692 165.444 74.5217 165.491 75.3157C165.521 74.8329 165.47 74.3478 165.342 73.8894C165.213 73.431 165.01 73.0088 164.743 72.648Z" fill="black"/>
<path d="M180.487 65.4031C180.371 65.9909 180.163 66.5498 180.068 67.1424C180.011 67.5431 179.99 67.9501 180.007 68.3563C180.013 68.1268 180.034 67.8983 180.068 67.6726C180.163 67.08 180.371 66.5211 180.487 65.9333C180.554 65.6089 180.576 65.2733 180.553 64.9401C180.54 65.0961 180.518 65.2509 180.487 65.4031Z" fill="black"/>
</g>
<path opacity="0.1" d="M26.2592 201.245C36.9059 201.245 45.5368 199.564 45.5368 197.49C45.5368 195.417 36.9059 193.736 26.2592 193.736C15.6125 193.736 6.98169 195.417 6.98169 197.49C6.98169 199.564 15.6125 201.245 26.2592 201.245Z" fill="#04AD48"/>
<path d="M26.8806 125.567H25.6401V159.433H26.8806V125.567Z" fill="#535461"/>
<path d="M34.6774 159.332L34.5983 160.858L34.4895 163.017L34.4439 163.914L34.3332 166.074L34.2857 166.971L34.1769 169.13L32.9245 193.616C32.8711 194.67 32.4883 195.659 31.8542 196.382C31.22 197.105 30.3823 197.507 29.5118 197.507H23.0088C22.1359 197.508 21.296 197.103 20.6614 196.376C20.0268 195.65 19.6456 194.656 19.5961 193.599L18.3437 169.113L18.2349 166.954L18.1894 166.057L18.0766 163.898L18.0311 163L17.9223 160.841L17.8432 159.316C17.8295 159.023 17.865 158.73 17.9476 158.455C18.0302 158.18 18.1581 157.928 18.3236 157.714C18.489 157.501 18.6886 157.331 18.91 157.214C19.1315 157.097 19.3703 157.036 19.6119 157.034H32.9107C33.1533 157.036 33.3931 157.098 33.6153 157.216C33.8376 157.334 34.0376 157.506 34.203 157.721C34.3684 157.936 34.4959 158.19 34.5774 158.467C34.659 158.744 34.693 159.039 34.6774 159.332Z" fill="#3F3D56"/>
<path d="M34.5983 160.856L34.4875 163.01H18.0312L17.9204 160.856H34.5983Z" fill="#9D9CB5"/>
<path d="M34.442 163.907L34.3332 166.062H18.1875L18.0767 163.907H34.442Z" fill="#9D9CB5"/>
<path d="M34.2857 166.961L34.1768 169.113H18.3437L18.2329 166.961H34.2857Z" fill="#9D9CB5"/>
<path d="M16.0349 138.262C23.26 144.6 26.2692 154.513 26.2692 154.513C26.2692 154.513 17.5642 154.151 10.3371 147.813C3.11003 141.475 0.0969238 131.569 0.0969238 131.569C0.0969238 131.569 8.80189 131.924 16.0349 138.262Z" fill="#04AD48"/>
<path d="M0.0969238 131.569C0.0969238 131.569 9.13228 137.651 12.0306 142.686C14.929 147.721 26.2613 154.518 26.2613 154.518" stroke="#535461" stroke-width="2" stroke-miterlimit="10"/>
<path d="M20.6901 125.495C24.6232 128.942 26.2613 134.338 26.2613 134.338C26.2613 134.338 21.5131 134.141 17.59 130.694C13.6668 127.246 12.0188 121.849 12.0188 121.849C12.0188 121.849 16.759 122.045 20.6901 125.495Z" fill="#04AD48"/>
<path d="M12.0188 121.849C12.0188 121.849 16.9371 125.159 18.5159 127.899C20.0946 130.638 26.2613 134.338 26.2613 134.338" stroke="#535461" stroke-width="2" stroke-miterlimit="10"/>
<path d="M31.9749 134.064C27.4583 140.083 26.5027 147.949 26.5027 147.949C26.5027 147.949 32.8712 146.054 37.3839 140.033C41.8966 134.011 42.8561 126.147 42.8561 126.147C42.8561 126.147 36.4916 128.045 31.9749 134.064Z" fill="#04AD48"/>
<path d="M42.8601 126.15C42.8601 126.15 36.9763 132.32 35.4807 136.571C33.985 140.822 26.5027 147.949 26.5027 147.949" stroke="#535461" stroke-width="2" stroke-miterlimit="10"/>
</g>
<defs>
<linearGradient id="paint0_linear_308_244" x1="92.1003" y1="200.448" x2="92.1003" y2="61.8718" gradientUnits="userSpaceOnUse">
<stop stop-color="#808080" stop-opacity="0.25"/>
<stop offset="0.54" stop-color="#808080" stop-opacity="0.12"/>
<stop offset="1" stop-color="#808080" stop-opacity="0.1"/>
</linearGradient>
<linearGradient id="paint1_linear_308_244" x1="170.615" y1="206.515" x2="170.615" y2="58.8971" gradientUnits="userSpaceOnUse">
<stop stop-color="#808080" stop-opacity="0.25"/>
<stop offset="0.54" stop-color="#808080" stop-opacity="0.12"/>
<stop offset="1" stop-color="#808080" stop-opacity="0.1"/>
</linearGradient>
<clipPath id="clip0_308_244">
<rect width="231" height="207" fill="white"/>
</clipPath>
</defs>
</svg>
