<svg width="15" height="14" viewBox="0 0 15 14" fill="none" xmlns="http://www.w3.org/2000/svg">
<path d="M7.14918 0C3.35668 0 0.283936 3.04871 0.283936 6.81152C0.283936 10.5743 3.35668 13.623 7.14918 13.623C10.9417 13.623 14.0144 10.5743 14.0144 6.81152C14.0144 3.04871 10.9417 0 7.14918 0ZM10.5209 4.66644L9.39422 9.93439C9.31117 10.3079 9.08695 10.3986 8.77413 10.2228L7.05782 8.96759L6.23012 9.75861C6.13877 9.84924 6.06126 9.92615 5.88409 9.92615L6.00589 8.19305L9.1866 5.3421C9.32502 5.22125 9.15615 5.15259 8.97345 5.27344L5.04254 7.72888L3.34838 7.20428C2.9802 7.08893 2.9719 6.83899 3.42589 6.66321L10.0448 4.13086C10.352 4.021 10.6206 4.20502 10.5209 4.66644Z" fill="#007CD6"/>
</svg>
