<svg width="14" height="13" viewBox="0 0 14 13" fill="none" xmlns="http://www.w3.org/2000/svg">
<path d="M11.2532 2.35052C10.0933 1.19696 8.54865 0.5625 6.90708 0.5625C3.51875 0.5625 0.761581 3.2981 0.761581 6.65991C0.761581 7.73383 1.04394 8.78302 1.58098 9.70862L0.708984 12.8672L3.96721 12.0185C4.86412 12.5046 5.87452 12.7601 6.90431 12.7601H6.90708C10.2926 12.7601 13.1107 10.0245 13.1107 6.66266C13.1107 5.03394 12.4131 3.50409 11.2532 2.35052ZM6.90708 11.7328C5.98802 11.7328 5.08834 11.4884 4.30493 11.027L4.11946 10.9171L2.18723 11.4197L2.70212 9.54932L2.58032 9.35706C2.06819 8.54956 1.79967 7.61847 1.79967 6.65991C1.79967 3.86664 4.09178 1.59247 6.90985 1.59247C8.27459 1.59247 9.55629 2.11981 10.5196 3.07837C11.483 4.03693 12.0754 5.30859 12.0726 6.66266C12.0726 9.45868 9.72238 11.7328 6.90708 11.7328ZM9.70854 7.93707C9.55629 7.86017 8.80056 7.49213 8.65938 7.44269C8.5182 7.3905 8.41577 7.36578 8.31335 7.51959C8.21092 7.6734 7.91749 8.01398 7.82614 8.11835C7.73755 8.21997 7.6462 8.2337 7.49395 8.1568C6.5915 7.70911 5.9991 7.35754 5.40392 6.34406C5.24613 6.07489 5.56171 6.09412 5.85515 5.51184C5.90497 5.41022 5.88006 5.32233 5.84131 5.24542C5.80255 5.16852 5.49528 4.4187 5.36794 4.11383C5.24337 3.8172 5.11603 3.8584 5.02191 3.85291C4.93332 3.84741 4.8309 3.84741 4.72847 3.84741C4.62605 3.84741 4.45995 3.88586 4.31877 4.03693C4.17759 4.19073 3.78173 4.55878 3.78173 5.30859C3.78173 6.05841 4.33261 6.78351 4.40736 6.88513C4.48487 6.98676 5.48974 8.52484 7.03165 9.18677C8.00607 9.60425 8.38809 9.63995 8.8753 9.56854C9.1715 9.5246 9.78328 9.2005 9.91062 8.84344C10.038 8.48639 10.038 8.18152 9.99921 8.11835C9.96322 8.04968 9.86079 8.01123 9.70854 7.93707Z" fill="#04AD48"/>
</svg>
